<svg width="69" height="69" viewBox="0 0 69 69" fill="none" xmlns="http://www.w3.org/2000/svg">
<g filter="url(#filter0_ddd_2388_219)">
<circle cx="34.5" cy="30.5" r="27" fill="#8156F9" stroke="white" stroke-dasharray="4 4"/>
<path d="M33.3965 25.8026C32.3725 24.2848 30.8805 23.1424 29.1485 22.5486C27.4165 21.9548 25.5375 21.9421 23.7975 22.5122C22.0575 23.0824 20.5505 24.2044 19.5055 25.7081C18.4605 27.2119 17.9345 29.0153 18.0065 30.8451C18.0795 32.6748 18.7465 34.4311 19.9065 35.8476C21.0675 37.2641 22.6575 38.2635 24.4375 38.6945C26.2175 39.1254 28.0895 38.9643 29.7695 38.2355C31.4485 37.5068 32.8455 36.2502 33.7465 34.6562L30.4285 32.7798C29.9355 33.652 29.1715 34.3396 28.2525 34.7384C27.3325 35.1371 26.3085 35.2253 25.3345 34.9895C24.3605 34.7537 23.4905 34.2068 22.8555 33.4317C22.2205 32.6566 21.8555 31.6956 21.8155 30.6944C21.7765 29.6932 22.0645 28.7063 22.6355 27.8835C23.2075 27.0607 24.0325 26.4468 24.9845 26.1348C25.9365 25.8228 26.9645 25.8298 27.9125 26.1547C28.8605 26.4796 29.6765 27.1047 30.2365 27.9352L33.3965 25.8026Z" fill="url(#paint0_radial_2388_219)"/>
<path d="M34.5732 26.6871C35.3982 25.0316 36.7422 23.6919 38.4012 22.8734C40.0592 22.0549 41.9412 21.8025 43.7562 22.1551C45.5722 22.5076 47.2222 23.4456 48.4532 24.8253C49.6852 26.2051 50.4302 27.9505 50.5752 29.7943C50.7202 31.6381 50.2572 33.4786 49.2562 35.034C48.2562 36.5893 46.7732 37.7737 45.0342 38.4058C43.2962 39.0379 41.3992 39.0827 39.6332 38.5336C37.8672 37.9844 36.3292 36.8715 35.2562 35.3652L38.3762 33.142C38.9632 33.966 39.8042 34.5747 40.7702 34.8751C41.7362 35.1755 42.7742 35.151 43.7252 34.8052C44.6762 34.4595 45.4872 33.8116 46.0342 32.9608C46.5822 32.1101 46.8352 31.1033 46.7562 30.0948C46.6772 29.0862 46.2692 28.1314 45.5952 27.3767C44.9222 26.622 44.0192 26.1089 43.0262 25.9161C42.0332 25.7232 41.0042 25.8613 40.0972 26.309C39.1892 26.7567 38.4542 27.4895 38.0032 28.3951L34.5732 26.6871Z" fill="url(#paint1_radial_2388_219)"/>
<path d="M33.3045 25.6541L30.1255 27.8086L35.3359 35.4965L38.5148 33.3419L33.3045 25.6541Z" fill="white"/>
</g>
<defs>
<filter id="filter0_ddd_2388_219" x="0" y="0" width="69" height="69" filterUnits="userSpaceOnUse" color-interpolation-filters="sRGB">
<feFlood flood-opacity="0" result="BackgroundImageFix"/>
<feColorMatrix in="SourceAlpha" type="matrix" values="0 0 0 0 0 0 0 0 0 0 0 0 0 0 0 0 0 0 127 0" result="hardAlpha"/>
<feOffset dy="4"/>
<feGaussianBlur stdDeviation="3.5"/>
<feComposite in2="hardAlpha" operator="out"/>
<feColorMatrix type="matrix" values="0 0 0 0 0 0 0 0 0 0 0 0 0 0 0 0 0 0 0.48 0"/>
<feBlend mode="normal" in2="BackgroundImageFix" result="effect1_dropShadow_2388_219"/>
<feColorMatrix in="SourceAlpha" type="matrix" values="0 0 0 0 0 0 0 0 0 0 0 0 0 0 0 0 0 0 127 0" result="hardAlpha"/>
<feOffset dy="4"/>
<feGaussianBlur stdDeviation="3.5"/>
<feComposite in2="hardAlpha" operator="out"/>
<feColorMatrix type="matrix" values="0 0 0 0 0 0 0 0 0 0 0 0 0 0 0 0 0 0 0.48 0"/>
<feBlend mode="normal" in2="effect1_dropShadow_2388_219" result="effect2_dropShadow_2388_219"/>
<feColorMatrix in="SourceAlpha" type="matrix" values="0 0 0 0 0 0 0 0 0 0 0 0 0 0 0 0 0 0 127 0" result="hardAlpha"/>
<feOffset dy="4"/>
<feGaussianBlur stdDeviation="3.5"/>
<feComposite in2="hardAlpha" operator="out"/>
<feColorMatrix type="matrix" values="0 0 0 0 0 0 0 0 0 0 0 0 0 0 0 0 0 0 0.48 0"/>
<feBlend mode="normal" in2="effect2_dropShadow_2388_219" result="effect3_dropShadow_2388_219"/>
<feBlend mode="normal" in="SourceGraphic" in2="effect3_dropShadow_2388_219" result="shape"/>
</filter>
<radialGradient id="paint0_radial_2388_219" cx="0" cy="0" r="1" gradientUnits="userSpaceOnUse" gradientTransform="translate(26.4645 30.5213) rotate(22.6293) scale(8.91671 8.91671)">
<stop stop-color="white" stop-opacity="0"/>
<stop offset="0.475" stop-color="white"/>
<stop offset="1" stop-color="white"/>
</radialGradient>
<radialGradient id="paint1_radial_2388_219" cx="0" cy="0" r="1" gradientUnits="userSpaceOnUse" gradientTransform="translate(42.0972 30.4493) rotate(-156.757) scale(9.10388 9.10388)">
<stop stop-color="white" stop-opacity="0"/>
<stop offset="0.475" stop-color="white"/>
<stop offset="1" stop-color="white"/>
</radialGradient>
</defs>
</svg>
