<svg width="599" height="307" viewBox="0 0 599 307" fill="none" xmlns="http://www.w3.org/2000/svg">
<mask id="mask0_2341_8870" style="mask-type:alpha" maskUnits="userSpaceOnUse" x="267" y="0" width="332" height="336">
<rect x="267" width="332" height="336" fill="url(#paint0_linear_2341_8870)"/>
</mask>
<g mask="url(#mask0_2341_8870)">
<rect x="267.75" y="0.75" width="330.5" height="305.5" rx="15.25" stroke="#F8F8F8" stroke-opacity="0.1" stroke-width="1.5"/>
<circle cx="289" cy="36" r="6" fill="#F8F8F8" fill-opacity="0.05"/>
<circle cx="289" cy="36" r="5.5" stroke="url(#paint1_linear_2341_8870)" stroke-opacity="0.25"/>
<circle cx="289" cy="36" r="3" fill="#F8F8F8" fill-opacity="0.05"/>
<circle cx="289" cy="36" r="2.5" stroke="url(#paint2_linear_2341_8870)" stroke-opacity="0.25"/>
<path d="M307.64 42.6C307.523 42.6 307.432 42.5627 307.368 42.488C307.304 42.424 307.272 42.3387 307.272 42.232V41.112C306.493 41.048 305.837 40.872 305.304 40.584C304.771 40.2853 304.365 39.928 304.088 39.512C303.811 39.096 303.661 38.6533 303.64 38.184C303.64 38.0987 303.672 38.024 303.736 37.96C303.811 37.8853 303.896 37.848 303.992 37.848H304.808C304.936 37.848 305.032 37.88 305.096 37.944C305.16 38.008 305.203 38.0827 305.224 38.168C305.288 38.424 305.421 38.68 305.624 38.936C305.827 39.1813 306.115 39.3893 306.488 39.56C306.872 39.72 307.363 39.8 307.96 39.8C308.877 39.8 309.549 39.64 309.976 39.32C310.413 38.9893 310.632 38.552 310.632 38.008C310.632 37.6347 310.515 37.336 310.28 37.112C310.056 36.8773 309.709 36.6693 309.24 36.488C308.771 36.3067 308.163 36.1093 307.416 35.896C306.637 35.672 305.992 35.4267 305.48 35.16C304.968 34.8933 304.584 34.5627 304.328 34.168C304.083 33.7733 303.96 33.272 303.96 32.664C303.96 31.8853 304.248 31.2187 304.824 30.664C305.4 30.0987 306.216 29.768 307.272 29.672V28.568C307.272 28.4613 307.304 28.376 307.368 28.312C307.432 28.2373 307.523 28.2 307.64 28.2H308.248C308.355 28.2 308.44 28.2373 308.504 28.312C308.579 28.376 308.616 28.4613 308.616 28.568V29.688C309.331 29.7733 309.928 29.9707 310.408 30.28C310.888 30.5893 311.251 30.9467 311.496 31.352C311.741 31.7573 311.869 32.152 311.88 32.536C311.88 32.6107 311.853 32.6853 311.8 32.76C311.747 32.824 311.661 32.856 311.544 32.856H310.696C310.621 32.856 310.541 32.8347 310.456 32.792C310.381 32.7493 310.323 32.6693 310.28 32.552C310.216 32.1147 309.971 31.7467 309.544 31.448C309.117 31.1493 308.563 31 307.88 31C307.187 31 306.621 31.1333 306.184 31.4C305.757 31.6667 305.544 32.0827 305.544 32.648C305.544 33.0107 305.645 33.3147 305.848 33.56C306.051 33.7947 306.371 34.0027 306.808 34.184C307.245 34.3653 307.816 34.5573 308.52 34.76C309.373 34.9947 310.072 35.2453 310.616 35.512C311.16 35.768 311.56 36.0933 311.816 36.488C312.083 36.872 312.216 37.368 312.216 37.976C312.216 38.584 312.067 39.112 311.768 39.56C311.48 40.008 311.064 40.3653 310.52 40.632C309.987 40.8987 309.352 41.064 308.616 41.128V42.232C308.616 42.3387 308.579 42.424 308.504 42.488C308.44 42.5627 308.355 42.6 308.248 42.6H307.64ZM319.307 41C319.2 41 319.109 40.968 319.035 40.904C318.971 40.8293 318.939 40.7387 318.939 40.632V38.328H313.755C313.648 38.328 313.557 38.296 313.483 38.232C313.419 38.1573 313.387 38.0667 313.387 37.96V37.32C313.387 37.2773 313.397 37.2133 313.419 37.128C313.451 37.032 313.499 36.936 313.563 36.84L318.363 30.072C318.491 29.8907 318.688 29.8 318.955 29.8H320.107C320.213 29.8 320.299 29.8373 320.363 29.912C320.437 29.976 320.475 30.0613 320.475 30.168V36.936H321.915C322.032 36.936 322.123 36.9733 322.187 37.048C322.261 37.112 322.299 37.1973 322.299 37.304V37.96C322.299 38.0667 322.261 38.1573 322.187 38.232C322.123 38.296 322.037 38.328 321.931 38.328H320.475V40.632C320.475 40.7387 320.437 40.8293 320.363 40.904C320.299 40.968 320.213 41 320.107 41H319.307ZM315.099 36.968H318.955V31.48L315.099 36.968ZM327.9 41.16C327.164 41.16 326.54 41.048 326.028 40.824C325.527 40.5893 325.116 40.2693 324.796 39.864C324.476 39.4587 324.241 38.9947 324.092 38.472C323.953 37.9493 323.873 37.3947 323.852 36.808C323.841 36.52 323.831 36.216 323.82 35.896C323.82 35.576 323.82 35.256 323.82 34.936C323.831 34.6053 323.841 34.2907 323.852 33.992C323.863 33.4053 323.943 32.8507 324.092 32.328C324.252 31.7947 324.487 31.3307 324.796 30.936C325.116 30.5307 325.532 30.216 326.044 29.992C326.556 29.7573 327.175 29.64 327.9 29.64C328.636 29.64 329.255 29.7573 329.756 29.992C330.268 30.216 330.684 30.5307 331.004 30.936C331.324 31.3307 331.559 31.7947 331.708 32.328C331.868 32.8507 331.953 33.4053 331.964 33.992C331.975 34.2907 331.98 34.6053 331.98 34.936C331.991 35.256 331.991 35.576 331.98 35.896C331.98 36.216 331.975 36.52 331.964 36.808C331.953 37.3947 331.868 37.9493 331.708 38.472C331.559 38.9947 331.324 39.4587 331.004 39.864C330.695 40.2693 330.284 40.5893 329.772 40.824C329.271 41.048 328.647 41.16 327.9 41.16ZM327.9 39.8C328.732 39.8 329.345 39.528 329.74 38.984C330.145 38.4293 330.353 37.6773 330.364 36.728C330.385 36.4187 330.396 36.12 330.396 35.832C330.396 35.5333 330.396 35.24 330.396 34.952C330.396 34.6533 330.385 34.36 330.364 34.072C330.353 33.144 330.145 32.4027 329.74 31.848C329.345 31.2827 328.732 31 327.9 31C327.079 31 326.465 31.2827 326.06 31.848C325.665 32.4027 325.457 33.144 325.436 34.072C325.436 34.36 325.431 34.6533 325.42 34.952C325.42 35.24 325.42 35.5333 325.42 35.832C325.431 36.12 325.436 36.4187 325.436 36.728C325.457 37.6773 325.671 38.4293 326.076 38.984C326.481 39.528 327.089 39.8 327.9 39.8ZM338.072 41.16C337.454 41.16 336.883 41.0853 336.36 40.936C335.848 40.776 335.406 40.552 335.032 40.264C334.67 39.9653 334.387 39.608 334.184 39.192C333.982 38.776 333.88 38.3067 333.88 37.784C333.88 37.1333 334.035 36.5733 334.344 36.104C334.664 35.6347 335.086 35.2773 335.608 35.032C335.192 34.7867 334.867 34.4667 334.632 34.072C334.398 33.6773 334.28 33.208 334.28 32.664C334.28 32.024 334.435 31.4853 334.744 31.048C335.064 30.6 335.507 30.2533 336.072 30.008C336.648 29.7627 337.315 29.64 338.072 29.64C338.819 29.64 339.475 29.7627 340.04 30.008C340.616 30.2427 341.059 30.584 341.368 31.032C341.688 31.48 341.848 32.0187 341.848 32.648C341.848 33.192 341.731 33.6667 341.496 34.072C341.262 34.4667 340.942 34.7867 340.536 35.032C341.059 35.2773 341.475 35.6347 341.784 36.104C342.104 36.5733 342.264 37.1333 342.264 37.784C342.264 38.4773 342.088 39.08 341.736 39.592C341.384 40.0933 340.894 40.4827 340.264 40.76C339.635 41.0267 338.904 41.16 338.072 41.16ZM338.072 39.88C338.563 39.88 339.006 39.7947 339.4 39.624C339.795 39.4533 340.11 39.2133 340.344 38.904C340.579 38.584 340.696 38.2107 340.696 37.784C340.696 37.3467 340.579 36.9787 340.344 36.68C340.11 36.3707 339.795 36.136 339.4 35.976C339.006 35.8053 338.563 35.72 338.072 35.72C337.582 35.72 337.134 35.8053 336.728 35.976C336.334 36.136 336.019 36.3707 335.784 36.68C335.55 36.9787 335.432 37.3467 335.432 37.784C335.432 38.2107 335.55 38.584 335.784 38.904C336.019 39.2133 336.334 39.4533 336.728 39.624C337.134 39.7947 337.582 39.88 338.072 39.88ZM338.072 34.456C338.478 34.456 338.851 34.3813 339.192 34.232C339.544 34.0827 339.822 33.88 340.024 33.624C340.238 33.368 340.344 33.0587 340.344 32.696C340.344 32.3333 340.243 32.0187 340.04 31.752C339.848 31.4853 339.576 31.2827 339.224 31.144C338.883 30.9947 338.499 30.92 338.072 30.92C337.646 30.92 337.256 30.9947 336.904 31.144C336.563 31.2827 336.291 31.4853 336.088 31.752C335.886 32.0187 335.784 32.3333 335.784 32.696C335.784 33.0693 335.886 33.3893 336.088 33.656C336.291 33.912 336.563 34.1093 336.904 34.248C337.256 34.3867 337.646 34.456 338.072 34.456ZM344.44 41C344.333 41 344.243 40.968 344.168 40.904C344.104 40.8293 344.072 40.7387 344.072 40.632V39.48C344.072 39.3733 344.104 39.288 344.168 39.224C344.243 39.1493 344.333 39.112 344.44 39.112H345.592C345.699 39.112 345.784 39.1493 345.848 39.224C345.923 39.288 345.96 39.3733 345.96 39.48V40.632C345.96 40.7387 345.923 40.8293 345.848 40.904C345.784 40.968 345.699 41 345.592 41H344.44ZM351.799 41.16C351.127 41.16 350.541 41.08 350.039 40.92C349.538 40.7493 349.117 40.5253 348.775 40.248C348.434 39.9707 348.173 39.6667 347.991 39.336C347.821 39.0053 347.73 38.664 347.719 38.312C347.719 38.216 347.751 38.1413 347.815 38.088C347.879 38.0347 347.959 38.008 348.055 38.008H348.839C348.935 38.008 349.021 38.0293 349.095 38.072C349.17 38.1147 349.234 38.2053 349.287 38.344C349.394 38.728 349.575 39.0267 349.831 39.24C350.098 39.4533 350.402 39.6027 350.743 39.688C351.095 39.7627 351.447 39.8 351.799 39.8C352.535 39.8 353.133 39.624 353.591 39.272C354.05 38.92 354.279 38.4027 354.279 37.72C354.279 37.0267 354.071 36.5307 353.655 36.232C353.239 35.9333 352.663 35.784 351.927 35.784H350.407C350.301 35.784 350.21 35.752 350.135 35.688C350.071 35.624 350.039 35.5333 350.039 35.416V34.984C350.039 34.888 350.055 34.808 350.087 34.744C350.13 34.6693 350.173 34.6053 350.215 34.552L353.319 31.16H348.599C348.493 31.16 348.402 31.128 348.327 31.064C348.263 31 348.231 30.9093 348.231 30.792V30.184C348.231 30.0667 348.263 29.976 348.327 29.912C348.402 29.8373 348.493 29.8 348.599 29.8H354.983C355.101 29.8 355.191 29.8373 355.255 29.912C355.33 29.976 355.367 30.0667 355.367 30.184V30.76C355.367 30.8347 355.346 30.904 355.303 30.968C355.271 31.0213 355.234 31.0747 355.191 31.128L352.103 34.568L352.359 34.584C353.063 34.6053 353.677 34.7333 354.199 34.968C354.733 35.2027 355.143 35.5547 355.431 36.024C355.73 36.4827 355.879 37.064 355.879 37.768C355.879 38.4827 355.703 39.096 355.351 39.608C354.999 40.1093 354.514 40.4933 353.895 40.76C353.277 41.0267 352.578 41.16 351.799 41.16ZM361.569 41.16C360.683 41.16 359.931 40.984 359.313 40.632C358.694 40.2693 358.219 39.8 357.889 39.224C357.569 38.6373 357.409 38.0027 357.409 37.32C357.409 37 357.446 36.696 357.521 36.408C357.606 36.1093 357.707 35.832 357.825 35.576C357.953 35.3093 358.075 35.0747 358.193 34.872C358.321 34.6587 358.433 34.488 358.529 34.36L361.569 30.12C361.622 30.0667 361.686 30.0027 361.761 29.928C361.835 29.8427 361.947 29.8 362.097 29.8H362.945C363.041 29.8 363.115 29.8373 363.169 29.912C363.233 29.976 363.265 30.056 363.265 30.152C363.265 30.1947 363.259 30.2373 363.249 30.28C363.238 30.312 363.222 30.3387 363.201 30.36L360.865 33.624C360.993 33.5813 361.137 33.5547 361.297 33.544C361.467 33.5227 361.627 33.512 361.777 33.512C362.363 33.5227 362.897 33.6293 363.377 33.832C363.857 34.0347 364.267 34.312 364.609 34.664C364.961 35.0053 365.227 35.4053 365.409 35.864C365.59 36.312 365.681 36.792 365.681 37.304C365.681 37.976 365.521 38.6053 365.201 39.192C364.881 39.7787 364.411 40.2533 363.793 40.616C363.185 40.9787 362.443 41.16 361.569 41.16ZM361.553 39.8C362.001 39.8 362.417 39.704 362.801 39.512C363.185 39.32 363.494 39.0427 363.729 38.68C363.974 38.3067 364.097 37.8533 364.097 37.32C364.097 36.776 363.979 36.3227 363.745 35.96C363.51 35.5867 363.195 35.3093 362.801 35.128C362.417 34.936 362.001 34.84 361.553 34.84C361.105 34.84 360.689 34.936 360.305 35.128C359.921 35.3093 359.606 35.5867 359.361 35.96C359.126 36.3227 359.009 36.776 359.009 37.32C359.009 37.8533 359.126 38.3067 359.361 38.68C359.606 39.0427 359.921 39.32 360.305 39.512C360.689 39.704 361.105 39.8 361.553 39.8Z" fill="#F8F8F8" fill-opacity="0.95"/>
<path d="M304.32 60C304.232 60 304.164 59.976 304.116 59.928C304.068 59.872 304.044 59.804 304.044 59.724V51.876C304.044 51.796 304.068 51.732 304.116 51.684C304.164 51.628 304.232 51.6 304.32 51.6H304.956C305.036 51.6 305.1 51.628 305.148 51.684C305.196 51.732 305.22 51.796 305.22 51.876V58.956H309.216C309.304 58.956 309.372 58.984 309.42 59.04C309.468 59.088 309.492 59.156 309.492 59.244V59.724C309.492 59.804 309.468 59.872 309.42 59.928C309.372 59.976 309.304 60 309.216 60H304.32ZM312.39 60.12C311.99 60.12 311.626 60.04 311.298 59.88C310.97 59.72 310.706 59.504 310.506 59.232C310.306 58.96 310.206 58.652 310.206 58.308C310.206 57.756 310.43 57.316 310.878 56.988C311.326 56.66 311.91 56.444 312.63 56.34L314.418 56.088V55.74C314.418 55.356 314.306 55.056 314.082 54.84C313.866 54.624 313.51 54.516 313.014 54.516C312.654 54.516 312.362 54.588 312.138 54.732C311.922 54.876 311.77 55.06 311.682 55.284C311.634 55.404 311.55 55.464 311.43 55.464H310.89C310.802 55.464 310.734 55.44 310.686 55.392C310.646 55.336 310.626 55.272 310.626 55.2C310.626 55.08 310.67 54.932 310.758 54.756C310.854 54.58 310.998 54.408 311.19 54.24C311.382 54.072 311.626 53.932 311.922 53.82C312.226 53.7 312.594 53.64 313.026 53.64C313.506 53.64 313.91 53.704 314.238 53.832C314.566 53.952 314.822 54.116 315.006 54.324C315.198 54.532 315.334 54.768 315.414 55.032C315.502 55.296 315.546 55.564 315.546 55.836V59.724C315.546 59.804 315.518 59.872 315.462 59.928C315.414 59.976 315.35 60 315.27 60H314.718C314.63 60 314.562 59.976 314.514 59.928C314.466 59.872 314.442 59.804 314.442 59.724V59.208C314.338 59.352 314.198 59.496 314.022 59.64C313.846 59.776 313.626 59.892 313.362 59.988C313.098 60.076 312.774 60.12 312.39 60.12ZM312.642 59.22C312.97 59.22 313.27 59.152 313.542 59.016C313.814 58.872 314.026 58.652 314.178 58.356C314.338 58.06 314.418 57.688 314.418 57.24V56.904L313.026 57.108C312.458 57.188 312.03 57.324 311.742 57.516C311.454 57.7 311.31 57.936 311.31 58.224C311.31 58.448 311.374 58.636 311.502 58.788C311.638 58.932 311.806 59.04 312.006 59.112C312.214 59.184 312.426 59.22 312.642 59.22ZM319.431 60.12C318.983 60.12 318.599 60.064 318.279 59.952C317.959 59.84 317.699 59.704 317.499 59.544C317.299 59.384 317.147 59.224 317.043 59.064C316.947 58.904 316.895 58.776 316.887 58.68C316.879 58.592 316.907 58.524 316.971 58.476C317.035 58.428 317.099 58.404 317.163 58.404H317.691C317.739 58.404 317.775 58.412 317.799 58.428C317.831 58.436 317.871 58.468 317.919 58.524C318.023 58.636 318.139 58.748 318.267 58.86C318.395 58.972 318.551 59.064 318.735 59.136C318.927 59.208 319.163 59.244 319.443 59.244C319.851 59.244 320.187 59.168 320.451 59.016C320.715 58.856 320.847 58.624 320.847 58.32C320.847 58.12 320.791 57.96 320.679 57.84C320.575 57.72 320.383 57.612 320.103 57.516C319.831 57.42 319.455 57.32 318.975 57.216C318.495 57.104 318.115 56.968 317.835 56.808C317.555 56.64 317.355 56.444 317.235 56.22C317.115 55.988 317.055 55.728 317.055 55.44C317.055 55.144 317.143 54.86 317.319 54.588C317.495 54.308 317.751 54.08 318.087 53.904C318.431 53.728 318.859 53.64 319.371 53.64C319.787 53.64 320.143 53.692 320.439 53.796C320.735 53.9 320.979 54.032 321.171 54.192C321.363 54.344 321.507 54.496 321.603 54.648C321.699 54.8 321.751 54.928 321.759 55.032C321.767 55.112 321.743 55.18 321.687 55.236C321.631 55.284 321.567 55.308 321.495 55.308H320.991C320.935 55.308 320.887 55.296 320.847 55.272C320.815 55.248 320.783 55.22 320.751 55.188C320.671 55.084 320.575 54.98 320.463 54.876C320.359 54.772 320.219 54.688 320.043 54.624C319.875 54.552 319.651 54.516 319.371 54.516C318.971 54.516 318.671 54.6 318.471 54.768C318.271 54.936 318.171 55.148 318.171 55.404C318.171 55.556 318.215 55.692 318.303 55.812C318.391 55.932 318.559 56.04 318.807 56.136C319.055 56.232 319.423 56.336 319.911 56.448C320.439 56.552 320.855 56.692 321.159 56.868C321.463 57.044 321.679 57.248 321.807 57.48C321.935 57.712 321.999 57.98 321.999 58.284C321.999 58.62 321.899 58.928 321.699 59.208C321.507 59.488 321.219 59.712 320.835 59.88C320.459 60.04 319.991 60.12 319.431 60.12ZM325.812 60C325.364 60 325 59.916 324.72 59.748C324.44 59.572 324.236 59.328 324.108 59.016C323.98 58.696 323.916 58.32 323.916 57.888V54.72H322.98C322.9 54.72 322.832 54.696 322.776 54.648C322.728 54.592 322.704 54.524 322.704 54.444V54.036C322.704 53.956 322.728 53.892 322.776 53.844C322.832 53.788 322.9 53.76 322.98 53.76H323.916V51.756C323.916 51.676 323.94 51.612 323.988 51.564C324.044 51.508 324.112 51.48 324.192 51.48H324.756C324.836 51.48 324.9 51.508 324.948 51.564C325.004 51.612 325.032 51.676 325.032 51.756V53.76H326.52C326.6 53.76 326.664 53.788 326.712 53.844C326.768 53.892 326.796 53.956 326.796 54.036V54.444C326.796 54.524 326.768 54.592 326.712 54.648C326.664 54.696 326.6 54.72 326.52 54.72H325.032V57.804C325.032 58.18 325.096 58.476 325.224 58.692C325.352 58.908 325.58 59.016 325.908 59.016H326.64C326.72 59.016 326.784 59.044 326.832 59.1C326.888 59.148 326.916 59.212 326.916 59.292V59.724C326.916 59.804 326.888 59.872 326.832 59.928C326.784 59.976 326.72 60 326.64 60H325.812ZM331.281 60C331.201 60 331.133 59.976 331.077 59.928C331.029 59.872 331.005 59.804 331.005 59.724V54.036C331.005 53.956 331.029 53.892 331.077 53.844C331.133 53.788 331.201 53.76 331.281 53.76H331.821C331.901 53.76 331.965 53.788 332.013 53.844C332.069 53.892 332.097 53.956 332.097 54.036V54.456C332.281 54.208 332.513 54.012 332.793 53.868C333.073 53.716 333.409 53.64 333.801 53.64C334.705 53.632 335.345 54 335.721 54.744C335.905 54.408 336.173 54.14 336.525 53.94C336.877 53.74 337.277 53.64 337.725 53.64C338.141 53.64 338.517 53.736 338.853 53.928C339.197 54.12 339.465 54.412 339.657 54.804C339.857 55.188 339.957 55.672 339.957 56.256V59.724C339.957 59.804 339.929 59.872 339.873 59.928C339.825 59.976 339.761 60 339.681 60H339.117C339.037 60 338.969 59.976 338.913 59.928C338.865 59.872 338.841 59.804 338.841 59.724V56.364C338.841 55.916 338.777 55.564 338.649 55.308C338.521 55.052 338.349 54.872 338.133 54.768C337.917 54.664 337.681 54.612 337.425 54.612C337.217 54.612 337.005 54.664 336.789 54.768C336.573 54.872 336.393 55.052 336.249 55.308C336.113 55.564 336.045 55.916 336.045 56.364V59.724C336.045 59.804 336.017 59.872 335.961 59.928C335.913 59.976 335.849 60 335.769 60H335.205C335.125 60 335.057 59.976 335.001 59.928C334.953 59.872 334.929 59.804 334.929 59.724V56.364C334.929 55.916 334.861 55.564 334.725 55.308C334.589 55.052 334.413 54.872 334.197 54.768C333.981 54.664 333.753 54.612 333.513 54.612C333.305 54.612 333.093 54.664 332.877 54.768C332.661 54.872 332.481 55.052 332.337 55.308C332.201 55.564 332.133 55.912 332.133 56.352V59.724C332.133 59.804 332.105 59.872 332.049 59.928C332.001 59.976 331.937 60 331.857 60H331.281ZM344.225 60.12C343.617 60.12 343.109 60.004 342.701 59.772C342.293 59.54 341.981 59.22 341.765 58.812C341.549 58.396 341.429 57.924 341.405 57.396C341.397 57.26 341.393 57.088 341.393 56.88C341.393 56.664 341.397 56.492 341.405 56.364C341.429 55.828 341.549 55.356 341.765 54.948C341.989 54.54 342.305 54.22 342.713 53.988C343.121 53.756 343.625 53.64 344.225 53.64C344.825 53.64 345.329 53.756 345.737 53.988C346.145 54.22 346.457 54.54 346.673 54.948C346.897 55.356 347.021 55.828 347.045 56.364C347.053 56.492 347.057 56.664 347.057 56.88C347.057 57.088 347.053 57.26 347.045 57.396C347.021 57.924 346.901 58.396 346.685 58.812C346.469 59.22 346.157 59.54 345.749 59.772C345.341 60.004 344.833 60.12 344.225 60.12ZM344.225 59.196C344.721 59.196 345.117 59.04 345.413 58.728C345.709 58.408 345.869 57.944 345.893 57.336C345.901 57.216 345.905 57.064 345.905 56.88C345.905 56.696 345.901 56.544 345.893 56.424C345.869 55.816 345.709 55.356 345.413 55.044C345.117 54.724 344.721 54.564 344.225 54.564C343.729 54.564 343.329 54.724 343.025 55.044C342.729 55.356 342.573 55.816 342.557 56.424C342.549 56.544 342.545 56.696 342.545 56.88C342.545 57.064 342.549 57.216 342.557 57.336C342.573 57.944 342.729 58.408 343.025 58.728C343.329 59.04 343.729 59.196 344.225 59.196ZM348.836 60C348.756 60 348.688 59.976 348.632 59.928C348.584 59.872 348.56 59.804 348.56 59.724V54.036C348.56 53.956 348.584 53.892 348.632 53.844C348.688 53.788 348.756 53.76 348.836 53.76H349.4C349.48 53.76 349.544 53.788 349.592 53.844C349.648 53.892 349.676 53.956 349.676 54.036V54.564C349.884 54.292 350.144 54.072 350.456 53.904C350.776 53.728 351.184 53.64 351.68 53.64C352.2 53.64 352.64 53.756 353 53.988C353.368 54.212 353.644 54.528 353.828 54.936C354.012 55.336 354.104 55.804 354.104 56.34V59.724C354.104 59.804 354.08 59.872 354.032 59.928C353.984 59.976 353.92 60 353.84 60H353.24C353.16 60 353.092 59.976 353.036 59.928C352.988 59.872 352.964 59.804 352.964 59.724V56.4C352.964 55.84 352.828 55.404 352.556 55.092C352.284 54.772 351.884 54.612 351.356 54.612C350.86 54.612 350.46 54.772 350.156 55.092C349.86 55.404 349.712 55.84 349.712 56.4V59.724C349.712 59.804 349.684 59.872 349.628 59.928C349.58 59.976 349.516 60 349.436 60H348.836ZM358.191 60C357.743 60 357.379 59.916 357.099 59.748C356.819 59.572 356.615 59.328 356.487 59.016C356.359 58.696 356.295 58.32 356.295 57.888V54.72H355.359C355.279 54.72 355.211 54.696 355.155 54.648C355.107 54.592 355.083 54.524 355.083 54.444V54.036C355.083 53.956 355.107 53.892 355.155 53.844C355.211 53.788 355.279 53.76 355.359 53.76H356.295V51.756C356.295 51.676 356.319 51.612 356.367 51.564C356.423 51.508 356.491 51.48 356.571 51.48H357.135C357.215 51.48 357.279 51.508 357.327 51.564C357.383 51.612 357.411 51.676 357.411 51.756V53.76H358.899C358.979 53.76 359.043 53.788 359.091 53.844C359.147 53.892 359.175 53.956 359.175 54.036V54.444C359.175 54.524 359.147 54.592 359.091 54.648C359.043 54.696 358.979 54.72 358.899 54.72H357.411V57.804C357.411 58.18 357.475 58.476 357.603 58.692C357.731 58.908 357.959 59.016 358.287 59.016H359.019C359.099 59.016 359.163 59.044 359.211 59.1C359.267 59.148 359.295 59.212 359.295 59.292V59.724C359.295 59.804 359.267 59.872 359.211 59.928C359.163 59.976 359.099 60 359.019 60H358.191ZM360.731 60C360.651 60 360.583 59.976 360.527 59.928C360.479 59.872 360.455 59.804 360.455 59.724V51.756C360.455 51.676 360.479 51.612 360.527 51.564C360.583 51.508 360.651 51.48 360.731 51.48H361.331C361.419 51.48 361.487 51.508 361.535 51.564C361.583 51.612 361.607 51.676 361.607 51.756V54.552C361.823 54.28 362.087 54.06 362.399 53.892C362.711 53.724 363.107 53.64 363.587 53.64C364.107 53.64 364.547 53.756 364.907 53.988C365.275 54.212 365.551 54.528 365.735 54.936C365.927 55.336 366.023 55.804 366.023 56.34V59.724C366.023 59.804 365.999 59.872 365.951 59.928C365.903 59.976 365.835 60 365.747 60H365.147C365.067 60 364.999 59.976 364.943 59.928C364.895 59.872 364.871 59.804 364.871 59.724V56.4C364.871 55.84 364.735 55.404 364.463 55.092C364.191 54.772 363.791 54.612 363.263 54.612C362.767 54.612 362.367 54.772 362.063 55.092C361.759 55.404 361.607 55.84 361.607 56.4V59.724C361.607 59.804 361.583 59.872 361.535 59.928C361.487 59.976 361.419 60 361.331 60H360.731Z" fill="#F8F8F8" fill-opacity="0.7"/>
<circle cx="405" cy="36" r="6" fill="#F8F8F8" fill-opacity="0.95"/>
<circle cx="405" cy="36" r="5.5" stroke="url(#paint3_linear_2341_8870)" stroke-opacity="0.25"/>
<circle cx="405" cy="36" r="3" fill="#282828" fill-opacity="0.7"/>
<circle cx="405" cy="36" r="2.5" stroke="url(#paint4_linear_2341_8870)" stroke-opacity="0.25"/>
<path d="M423.64 42.6C423.523 42.6 423.432 42.5627 423.368 42.488C423.304 42.424 423.272 42.3387 423.272 42.232V41.112C422.493 41.048 421.837 40.872 421.304 40.584C420.771 40.2853 420.365 39.928 420.088 39.512C419.811 39.096 419.661 38.6533 419.64 38.184C419.64 38.0987 419.672 38.024 419.736 37.96C419.811 37.8853 419.896 37.848 419.992 37.848H420.808C420.936 37.848 421.032 37.88 421.096 37.944C421.16 38.008 421.203 38.0827 421.224 38.168C421.288 38.424 421.421 38.68 421.624 38.936C421.827 39.1813 422.115 39.3893 422.488 39.56C422.872 39.72 423.363 39.8 423.96 39.8C424.877 39.8 425.549 39.64 425.976 39.32C426.413 38.9893 426.632 38.552 426.632 38.008C426.632 37.6347 426.515 37.336 426.28 37.112C426.056 36.8773 425.709 36.6693 425.24 36.488C424.771 36.3067 424.163 36.1093 423.416 35.896C422.637 35.672 421.992 35.4267 421.48 35.16C420.968 34.8933 420.584 34.5627 420.328 34.168C420.083 33.7733 419.96 33.272 419.96 32.664C419.96 31.8853 420.248 31.2187 420.824 30.664C421.4 30.0987 422.216 29.768 423.272 29.672V28.568C423.272 28.4613 423.304 28.376 423.368 28.312C423.432 28.2373 423.523 28.2 423.64 28.2H424.248C424.355 28.2 424.44 28.2373 424.504 28.312C424.579 28.376 424.616 28.4613 424.616 28.568V29.688C425.331 29.7733 425.928 29.9707 426.408 30.28C426.888 30.5893 427.251 30.9467 427.496 31.352C427.741 31.7573 427.869 32.152 427.88 32.536C427.88 32.6107 427.853 32.6853 427.8 32.76C427.747 32.824 427.661 32.856 427.544 32.856H426.696C426.621 32.856 426.541 32.8347 426.456 32.792C426.381 32.7493 426.323 32.6693 426.28 32.552C426.216 32.1147 425.971 31.7467 425.544 31.448C425.117 31.1493 424.563 31 423.88 31C423.187 31 422.621 31.1333 422.184 31.4C421.757 31.6667 421.544 32.0827 421.544 32.648C421.544 33.0107 421.645 33.3147 421.848 33.56C422.051 33.7947 422.371 34.0027 422.808 34.184C423.245 34.3653 423.816 34.5573 424.52 34.76C425.373 34.9947 426.072 35.2453 426.616 35.512C427.16 35.768 427.56 36.0933 427.816 36.488C428.083 36.872 428.216 37.368 428.216 37.976C428.216 38.584 428.067 39.112 427.768 39.56C427.48 40.008 427.064 40.3653 426.52 40.632C425.987 40.8987 425.352 41.064 424.616 41.128V42.232C424.616 42.3387 424.579 42.424 424.504 42.488C424.44 42.5627 424.355 42.6 424.248 42.6H423.64ZM433.307 41C433.2 41 433.109 40.968 433.035 40.904C432.971 40.8293 432.939 40.7387 432.939 40.632V31.672L430.283 33.72C430.197 33.784 430.107 33.8107 430.011 33.8C429.915 33.7893 429.835 33.7413 429.771 33.656L429.355 33.128C429.291 33.032 429.264 32.936 429.275 32.84C429.296 32.744 429.349 32.664 429.435 32.6L432.923 29.912C432.997 29.8587 433.067 29.8267 433.131 29.816C433.195 29.8053 433.264 29.8 433.339 29.8H434.155C434.261 29.8 434.347 29.8373 434.411 29.912C434.475 29.976 434.507 30.0613 434.507 30.168V40.632C434.507 40.7387 434.475 40.8293 434.411 40.904C434.347 40.968 434.261 41 434.155 41H433.307ZM436.806 42.2C436.721 42.2 436.652 42.168 436.598 42.104C436.556 42.04 436.54 41.96 436.55 41.864L436.918 39.576C436.94 39.448 436.982 39.3413 437.046 39.256C437.121 39.16 437.228 39.112 437.366 39.112H438.438C438.513 39.112 438.572 39.1387 438.614 39.192C438.668 39.2453 438.694 39.3093 438.694 39.384C438.694 39.4693 438.673 39.5547 438.63 39.64L437.798 41.832C437.756 41.9387 437.697 42.024 437.622 42.088C437.558 42.1627 437.462 42.2 437.334 42.2H436.806ZM444.556 41.16C443.82 41.16 443.196 41.048 442.684 40.824C442.183 40.5893 441.772 40.2693 441.452 39.864C441.132 39.4587 440.898 38.9947 440.748 38.472C440.61 37.9493 440.53 37.3947 440.508 36.808C440.498 36.52 440.487 36.216 440.476 35.896C440.476 35.576 440.476 35.256 440.476 34.936C440.487 34.6053 440.498 34.2907 440.508 33.992C440.519 33.4053 440.599 32.8507 440.748 32.328C440.908 31.7947 441.143 31.3307 441.452 30.936C441.772 30.5307 442.188 30.216 442.7 29.992C443.212 29.7573 443.831 29.64 444.556 29.64C445.292 29.64 445.911 29.7573 446.412 29.992C446.924 30.216 447.34 30.5307 447.66 30.936C447.98 31.3307 448.215 31.7947 448.364 32.328C448.524 32.8507 448.61 33.4053 448.62 33.992C448.631 34.2907 448.636 34.6053 448.636 34.936C448.647 35.256 448.647 35.576 448.636 35.896C448.636 36.216 448.631 36.52 448.62 36.808C448.61 37.3947 448.524 37.9493 448.364 38.472C448.215 38.9947 447.98 39.4587 447.66 39.864C447.351 40.2693 446.94 40.5893 446.428 40.824C445.927 41.048 445.303 41.16 444.556 41.16ZM444.556 39.8C445.388 39.8 446.002 39.528 446.396 38.984C446.802 38.4293 447.01 37.6773 447.02 36.728C447.042 36.4187 447.052 36.12 447.052 35.832C447.052 35.5333 447.052 35.24 447.052 34.952C447.052 34.6533 447.042 34.36 447.02 34.072C447.01 33.144 446.802 32.4027 446.396 31.848C446.002 31.2827 445.388 31 444.556 31C443.735 31 443.122 31.2827 442.716 31.848C442.322 32.4027 442.114 33.144 442.092 34.072C442.092 34.36 442.087 34.6533 442.076 34.952C442.076 35.24 442.076 35.5333 442.076 35.832C442.087 36.12 442.092 36.4187 442.092 36.728C442.114 37.6773 442.327 38.4293 442.732 38.984C443.138 39.528 443.746 39.8 444.556 39.8ZM450.793 41C450.686 41 450.595 40.968 450.521 40.904C450.457 40.8293 450.425 40.7387 450.425 40.632V40.12C450.425 40.024 450.451 39.9173 450.505 39.8C450.558 39.6827 450.665 39.5547 450.825 39.416L454.217 36.024C454.761 35.5653 455.187 35.176 455.497 34.856C455.817 34.5253 456.041 34.2107 456.169 33.912C456.307 33.6133 456.377 33.304 456.377 32.984C456.377 32.376 456.206 31.896 455.865 31.544C455.523 31.1813 455.017 31 454.345 31C453.918 31 453.55 31.0907 453.241 31.272C452.931 31.4427 452.686 31.6827 452.505 31.992C452.334 32.2907 452.222 32.632 452.169 33.016C452.147 33.1547 452.089 33.2507 451.993 33.304C451.907 33.3573 451.827 33.384 451.753 33.384H450.921C450.825 33.384 450.745 33.3573 450.681 33.304C450.617 33.24 450.585 33.1653 450.585 33.08C450.595 32.6747 450.681 32.2693 450.841 31.864C451.001 31.448 451.235 31.0747 451.545 30.744C451.865 30.4133 452.254 30.1467 452.713 29.944C453.182 29.7307 453.726 29.624 454.345 29.624C455.187 29.624 455.875 29.7787 456.409 30.088C456.953 30.3867 457.353 30.7867 457.609 31.288C457.865 31.7893 457.993 32.3387 457.993 32.936C457.993 33.4053 457.913 33.8373 457.753 34.232C457.593 34.616 457.358 34.9947 457.049 35.368C456.75 35.7307 456.377 36.104 455.929 36.488L452.857 39.608H457.849C457.966 39.608 458.057 39.64 458.121 39.704C458.195 39.768 458.233 39.8587 458.233 39.976V40.632C458.233 40.7387 458.195 40.8293 458.121 40.904C458.057 40.968 457.966 41 457.849 41H450.793ZM465.291 41C465.184 41 465.094 40.968 465.019 40.904C464.955 40.8293 464.923 40.7387 464.923 40.632V38.328H459.739C459.632 38.328 459.542 38.296 459.467 38.232C459.403 38.1573 459.371 38.0667 459.371 37.96V37.32C459.371 37.2773 459.382 37.2133 459.403 37.128C459.435 37.032 459.483 36.936 459.547 36.84L464.347 30.072C464.475 29.8907 464.672 29.8 464.939 29.8H466.091C466.198 29.8 466.283 29.8373 466.347 29.912C466.422 29.976 466.459 30.0613 466.459 30.168V36.936H467.899C468.016 36.936 468.107 36.9733 468.171 37.048C468.246 37.112 468.283 37.1973 468.283 37.304V37.96C468.283 38.0667 468.246 38.1573 468.171 38.232C468.107 38.296 468.022 38.328 467.915 38.328H466.459V40.632C466.459 40.7387 466.422 40.8293 466.347 40.904C466.283 40.968 466.198 41 466.091 41H465.291ZM461.083 36.968H464.939V31.48L461.083 36.968Z" fill="#F8F8F8" fill-opacity="0.95"/>
<path d="M422.156 60C422.076 60 422.008 59.976 421.952 59.928C421.904 59.872 421.88 59.804 421.88 59.724V52.668H419.576C419.496 52.668 419.428 52.644 419.372 52.596C419.324 52.54 419.3 52.472 419.3 52.392V51.888C419.3 51.8 419.324 51.732 419.372 51.684C419.428 51.628 419.496 51.6 419.576 51.6H425.36C425.448 51.6 425.516 51.628 425.564 51.684C425.62 51.732 425.648 51.8 425.648 51.888V52.392C425.648 52.472 425.62 52.54 425.564 52.596C425.516 52.644 425.448 52.668 425.36 52.668H423.068V59.724C423.068 59.804 423.04 59.872 422.984 59.928C422.936 59.976 422.868 60 422.78 60H422.156ZM426.879 60C426.799 60 426.731 59.976 426.675 59.928C426.627 59.872 426.603 59.804 426.603 59.724V51.756C426.603 51.676 426.627 51.612 426.675 51.564C426.731 51.508 426.799 51.48 426.879 51.48H427.479C427.567 51.48 427.635 51.508 427.683 51.564C427.731 51.612 427.755 51.676 427.755 51.756V54.552C427.971 54.28 428.235 54.06 428.547 53.892C428.859 53.724 429.255 53.64 429.735 53.64C430.255 53.64 430.695 53.756 431.055 53.988C431.423 54.212 431.699 54.528 431.883 54.936C432.075 55.336 432.171 55.804 432.171 56.34V59.724C432.171 59.804 432.147 59.872 432.099 59.928C432.051 59.976 431.983 60 431.895 60H431.295C431.215 60 431.147 59.976 431.091 59.928C431.043 59.872 431.019 59.804 431.019 59.724V56.4C431.019 55.84 430.883 55.404 430.611 55.092C430.339 54.772 429.939 54.612 429.411 54.612C428.915 54.612 428.515 54.772 428.211 55.092C427.907 55.404 427.755 55.84 427.755 56.4V59.724C427.755 59.804 427.731 59.872 427.683 59.928C427.635 59.976 427.567 60 427.479 60H426.879ZM434.18 60C434.1 60 434.032 59.976 433.976 59.928C433.928 59.872 433.904 59.804 433.904 59.724V54.036C433.904 53.956 433.928 53.892 433.976 53.844C434.032 53.788 434.1 53.76 434.18 53.76H434.756C434.836 53.76 434.9 53.788 434.948 53.844C434.996 53.892 435.02 53.956 435.02 54.036V59.724C435.02 59.804 434.996 59.872 434.948 59.928C434.9 59.976 434.836 60 434.756 60H434.18ZM434.084 52.596C434.004 52.596 433.936 52.572 433.88 52.524C433.832 52.468 433.808 52.4 433.808 52.32V51.672C433.808 51.592 433.832 51.528 433.88 51.48C433.936 51.424 434.004 51.396 434.084 51.396H434.84C434.92 51.396 434.984 51.424 435.032 51.48C435.088 51.528 435.116 51.592 435.116 51.672V52.32C435.116 52.4 435.088 52.468 435.032 52.524C434.984 52.572 434.92 52.596 434.84 52.596H434.084ZM438.97 60.12C438.522 60.12 438.138 60.064 437.818 59.952C437.498 59.84 437.238 59.704 437.038 59.544C436.838 59.384 436.686 59.224 436.582 59.064C436.486 58.904 436.434 58.776 436.426 58.68C436.418 58.592 436.446 58.524 436.51 58.476C436.574 58.428 436.638 58.404 436.702 58.404H437.23C437.278 58.404 437.314 58.412 437.338 58.428C437.37 58.436 437.41 58.468 437.458 58.524C437.562 58.636 437.678 58.748 437.806 58.86C437.934 58.972 438.09 59.064 438.274 59.136C438.466 59.208 438.702 59.244 438.982 59.244C439.39 59.244 439.726 59.168 439.99 59.016C440.254 58.856 440.386 58.624 440.386 58.32C440.386 58.12 440.33 57.96 440.218 57.84C440.114 57.72 439.922 57.612 439.642 57.516C439.37 57.42 438.994 57.32 438.514 57.216C438.034 57.104 437.654 56.968 437.374 56.808C437.094 56.64 436.894 56.444 436.774 56.22C436.654 55.988 436.594 55.728 436.594 55.44C436.594 55.144 436.682 54.86 436.858 54.588C437.034 54.308 437.29 54.08 437.626 53.904C437.97 53.728 438.398 53.64 438.91 53.64C439.326 53.64 439.682 53.692 439.978 53.796C440.274 53.9 440.518 54.032 440.71 54.192C440.902 54.344 441.046 54.496 441.142 54.648C441.238 54.8 441.29 54.928 441.298 55.032C441.306 55.112 441.282 55.18 441.226 55.236C441.17 55.284 441.106 55.308 441.034 55.308H440.53C440.474 55.308 440.426 55.296 440.386 55.272C440.354 55.248 440.322 55.22 440.29 55.188C440.21 55.084 440.114 54.98 440.002 54.876C439.898 54.772 439.758 54.688 439.582 54.624C439.414 54.552 439.19 54.516 438.91 54.516C438.51 54.516 438.21 54.6 438.01 54.768C437.81 54.936 437.71 55.148 437.71 55.404C437.71 55.556 437.754 55.692 437.842 55.812C437.93 55.932 438.098 56.04 438.346 56.136C438.594 56.232 438.962 56.336 439.45 56.448C439.978 56.552 440.394 56.692 440.698 56.868C441.002 57.044 441.218 57.248 441.346 57.48C441.474 57.712 441.538 57.98 441.538 58.284C441.538 58.62 441.438 58.928 441.238 59.208C441.046 59.488 440.758 59.712 440.374 59.88C439.998 60.04 439.53 60.12 438.97 60.12ZM446.144 60C446.064 60 445.996 59.976 445.94 59.928C445.892 59.872 445.868 59.804 445.868 59.724V54.036C445.868 53.956 445.892 53.892 445.94 53.844C445.996 53.788 446.064 53.76 446.144 53.76H446.684C446.764 53.76 446.828 53.788 446.876 53.844C446.932 53.892 446.96 53.956 446.96 54.036V54.456C447.144 54.208 447.376 54.012 447.656 53.868C447.936 53.716 448.272 53.64 448.664 53.64C449.568 53.632 450.208 54 450.584 54.744C450.768 54.408 451.036 54.14 451.388 53.94C451.74 53.74 452.14 53.64 452.588 53.64C453.004 53.64 453.38 53.736 453.716 53.928C454.06 54.12 454.328 54.412 454.52 54.804C454.72 55.188 454.82 55.672 454.82 56.256V59.724C454.82 59.804 454.792 59.872 454.736 59.928C454.688 59.976 454.624 60 454.544 60H453.98C453.9 60 453.832 59.976 453.776 59.928C453.728 59.872 453.704 59.804 453.704 59.724V56.364C453.704 55.916 453.64 55.564 453.512 55.308C453.384 55.052 453.212 54.872 452.996 54.768C452.78 54.664 452.544 54.612 452.288 54.612C452.08 54.612 451.868 54.664 451.652 54.768C451.436 54.872 451.256 55.052 451.112 55.308C450.976 55.564 450.908 55.916 450.908 56.364V59.724C450.908 59.804 450.88 59.872 450.824 59.928C450.776 59.976 450.712 60 450.632 60H450.068C449.988 60 449.92 59.976 449.864 59.928C449.816 59.872 449.792 59.804 449.792 59.724V56.364C449.792 55.916 449.724 55.564 449.588 55.308C449.452 55.052 449.276 54.872 449.06 54.768C448.844 54.664 448.616 54.612 448.376 54.612C448.168 54.612 447.956 54.664 447.74 54.768C447.524 54.872 447.344 55.052 447.2 55.308C447.064 55.564 446.996 55.912 446.996 56.352V59.724C446.996 59.804 446.968 59.872 446.912 59.928C446.864 59.976 446.8 60 446.72 60H446.144ZM459.089 60.12C458.481 60.12 457.973 60.004 457.565 59.772C457.157 59.54 456.845 59.22 456.629 58.812C456.413 58.396 456.293 57.924 456.269 57.396C456.261 57.26 456.257 57.088 456.257 56.88C456.257 56.664 456.261 56.492 456.269 56.364C456.293 55.828 456.413 55.356 456.629 54.948C456.853 54.54 457.169 54.22 457.577 53.988C457.985 53.756 458.489 53.64 459.089 53.64C459.689 53.64 460.193 53.756 460.601 53.988C461.009 54.22 461.321 54.54 461.537 54.948C461.761 55.356 461.885 55.828 461.909 56.364C461.917 56.492 461.921 56.664 461.921 56.88C461.921 57.088 461.917 57.26 461.909 57.396C461.885 57.924 461.765 58.396 461.549 58.812C461.333 59.22 461.021 59.54 460.613 59.772C460.205 60.004 459.697 60.12 459.089 60.12ZM459.089 59.196C459.585 59.196 459.981 59.04 460.277 58.728C460.573 58.408 460.733 57.944 460.757 57.336C460.765 57.216 460.769 57.064 460.769 56.88C460.769 56.696 460.765 56.544 460.757 56.424C460.733 55.816 460.573 55.356 460.277 55.044C459.981 54.724 459.585 54.564 459.089 54.564C458.593 54.564 458.193 54.724 457.889 55.044C457.593 55.356 457.437 55.816 457.421 56.424C457.413 56.544 457.409 56.696 457.409 56.88C457.409 57.064 457.413 57.216 457.421 57.336C457.437 57.944 457.593 58.408 457.889 58.728C458.193 59.04 458.593 59.196 459.089 59.196ZM463.699 60C463.619 60 463.551 59.976 463.495 59.928C463.447 59.872 463.423 59.804 463.423 59.724V54.036C463.423 53.956 463.447 53.892 463.495 53.844C463.551 53.788 463.619 53.76 463.699 53.76H464.263C464.343 53.76 464.407 53.788 464.455 53.844C464.511 53.892 464.539 53.956 464.539 54.036V54.564C464.747 54.292 465.007 54.072 465.319 53.904C465.639 53.728 466.047 53.64 466.543 53.64C467.063 53.64 467.503 53.756 467.863 53.988C468.231 54.212 468.507 54.528 468.691 54.936C468.875 55.336 468.967 55.804 468.967 56.34V59.724C468.967 59.804 468.943 59.872 468.895 59.928C468.847 59.976 468.783 60 468.703 60H468.103C468.023 60 467.955 59.976 467.899 59.928C467.851 59.872 467.827 59.804 467.827 59.724V56.4C467.827 55.84 467.691 55.404 467.419 55.092C467.147 54.772 466.747 54.612 466.219 54.612C465.723 54.612 465.323 54.772 465.019 55.092C464.723 55.404 464.575 55.84 464.575 56.4V59.724C464.575 59.804 464.547 59.872 464.491 59.928C464.443 59.976 464.379 60 464.299 60H463.699ZM473.054 60C472.606 60 472.242 59.916 471.962 59.748C471.682 59.572 471.478 59.328 471.35 59.016C471.222 58.696 471.158 58.32 471.158 57.888V54.72H470.222C470.142 54.72 470.074 54.696 470.018 54.648C469.97 54.592 469.946 54.524 469.946 54.444V54.036C469.946 53.956 469.97 53.892 470.018 53.844C470.074 53.788 470.142 53.76 470.222 53.76H471.158V51.756C471.158 51.676 471.182 51.612 471.23 51.564C471.286 51.508 471.354 51.48 471.434 51.48H471.998C472.078 51.48 472.142 51.508 472.19 51.564C472.246 51.612 472.274 51.676 472.274 51.756V53.76H473.762C473.842 53.76 473.906 53.788 473.954 53.844C474.01 53.892 474.038 53.956 474.038 54.036V54.444C474.038 54.524 474.01 54.592 473.954 54.648C473.906 54.696 473.842 54.72 473.762 54.72H472.274V57.804C472.274 58.18 472.338 58.476 472.466 58.692C472.594 58.908 472.822 59.016 473.15 59.016H473.882C473.962 59.016 474.026 59.044 474.074 59.1C474.13 59.148 474.158 59.212 474.158 59.292V59.724C474.158 59.804 474.13 59.872 474.074 59.928C474.026 59.976 473.962 60 473.882 60H473.054ZM475.594 60C475.514 60 475.446 59.976 475.39 59.928C475.342 59.872 475.318 59.804 475.318 59.724V51.756C475.318 51.676 475.342 51.612 475.39 51.564C475.446 51.508 475.514 51.48 475.594 51.48H476.194C476.282 51.48 476.35 51.508 476.398 51.564C476.446 51.612 476.47 51.676 476.47 51.756V54.552C476.686 54.28 476.95 54.06 477.262 53.892C477.574 53.724 477.97 53.64 478.45 53.64C478.97 53.64 479.41 53.756 479.77 53.988C480.138 54.212 480.414 54.528 480.598 54.936C480.79 55.336 480.886 55.804 480.886 56.34V59.724C480.886 59.804 480.862 59.872 480.814 59.928C480.766 59.976 480.698 60 480.61 60H480.01C479.93 60 479.862 59.976 479.806 59.928C479.758 59.872 479.734 59.804 479.734 59.724V56.4C479.734 55.84 479.598 55.404 479.326 55.092C479.054 54.772 478.654 54.612 478.126 54.612C477.63 54.612 477.23 54.772 476.926 55.092C476.622 55.404 476.47 55.84 476.47 56.4V59.724C476.47 59.804 476.446 59.872 476.398 59.928C476.35 59.976 476.282 60 476.194 60H475.594Z" fill="#F8F8F8" fill-opacity="0.7"/>
<g filter="url(#filter0_bdi_2341_8870)">
<g clip-path="url(#clip0_2341_8870)">
<g filter="url(#filter1_d_2341_8870)">
<rect x="551" y="30" width="28" height="28" rx="14" fill="#F8F8F8" fill-opacity="0.05" style="mix-blend-mode:luminosity" shape-rendering="crispEdges"/>
<rect x="551.75" y="30.75" width="26.5" height="26.5" rx="13.25" stroke="url(#paint5_linear_2341_8870)" stroke-opacity="0.25" stroke-width="1.5" shape-rendering="crispEdges"/>
<g clip-path="url(#clip1_2341_8870)">
<path d="M560.5 45.5L563.647 48L569.5 40" stroke="#F8F8F8" stroke-width="2" stroke-linecap="square"/>
</g>
</g>
</g>
<rect x="547.75" y="26.75" width="34.5" height="34.5" rx="17.25" stroke="#F8F8F8" stroke-opacity="0.4" stroke-width="1.5" shape-rendering="crispEdges"/>
</g>
<rect opacity="0.05" x="283" y="153" width="32" height="80" rx="2" fill="#F8F8F8"/>
<rect opacity="0.1" x="317" y="114" width="32" height="119" rx="2" fill="#F8F8F8"/>
<rect opacity="0.05" x="361" y="187" width="32" height="46" rx="2" fill="#F8F8F8"/>
<rect opacity="0.5" x="395" y="131" width="32" height="2" rx="1" fill="#F8F8F8" fill-opacity="0.95"/>
<rect opacity="0.5" x="395" y="135" width="32" height="98" rx="2" fill="url(#paint6_linear_2341_8870)"/>
<rect opacity="0.05" x="439" y="153" width="32" height="80" rx="2" fill="#F8F8F8"/>
<rect opacity="0.05" x="473" y="65" width="32" height="168" rx="2" fill="#F8F8F8"/>
<rect opacity="0.05" x="517" y="201" width="32" height="32" rx="2" fill="#F8F8F8"/>
<rect opacity="0.1" x="551" y="213" width="32" height="20" rx="2" fill="#F8F8F8"/>
<g opacity="0.1">
<mask id="path-30-inside-1_2341_8870" fill="white">
<path d="M267 241H599V245H267V241Z"/>
</mask>
<path d="M267 242.5H599V239.5H267V242.5Z" fill="#F8F8F8" mask="url(#path-30-inside-1_2341_8870)"/>
<path d="M283 241V245" stroke="#F8F8F8" stroke-width="1.5" stroke-linecap="round"/>
<path d="M349 241V245" stroke="#F8F8F8" stroke-width="1.5" stroke-linecap="round"/>
<path d="M361 241V245" stroke="#F8F8F8" stroke-width="1.5" stroke-linecap="round"/>
<path d="M427 241V245" stroke="#F8F8F8" stroke-width="1.5" stroke-linecap="round"/>
<path d="M439 241V245" stroke="#F8F8F8" stroke-width="1.5" stroke-linecap="round"/>
<path d="M505 241V245" stroke="#F8F8F8" stroke-width="1.5" stroke-linecap="round"/>
<path d="M517 241V245" stroke="#F8F8F8" stroke-width="1.5" stroke-linecap="round"/>
<path d="M583 241V245" stroke="#F8F8F8" stroke-width="1.5" stroke-linecap="round"/>
</g>
<rect opacity="0.5" x="291" y="269" width="44" height="4" rx="1" fill="#F8F8F8"/>
<rect opacity="0.1" x="291" y="279" width="142" height="4" rx="1" fill="#F8F8F8"/>
<rect opacity="0.5" x="531" y="269" width="44" height="4" rx="1" fill="#F8F8F8"/>
<rect opacity="0.1" x="433" y="279" width="142" height="4" rx="1" fill="#F8F8F8"/>
</g>
<g clip-path="url(#clip2_2341_8870)">
<mask id="mask1_2341_8870" style="mask-type:alpha" maskUnits="userSpaceOnUse" x="0" y="43" width="263" height="264">
<rect y="43" width="263" height="264" fill="url(#paint7_linear_2341_8870)"/>
</mask>
<g mask="url(#mask1_2341_8870)">
<g clip-path="url(#clip3_2341_8870)">
<rect x="16" y="79" width="231" height="58" rx="12" fill="#F8F8F8" fill-opacity="0.01"/>
<circle cx="45" cy="108" r="9" fill="#F8F8F8" fill-opacity="0.01"/>
<circle cx="45" cy="108" r="9" fill="#121212" fill-opacity="0.3"/>
<circle cx="45" cy="108" r="8.5" stroke="#F8F8F8" stroke-opacity="0.1"/>
<rect opacity="0.1" x="70" y="106" width="101" height="4" rx="1" fill="#F8F8F8"/>
<path d="M185.805 113.2C185.717 113.2 185.645 113.172 185.589 113.116C185.533 113.06 185.505 112.988 185.505 112.9V112.072C184.897 112 184.389 111.852 183.981 111.628C183.573 111.396 183.265 111.116 183.057 110.788C182.849 110.46 182.737 110.116 182.721 109.756C182.721 109.692 182.745 109.636 182.793 109.588C182.849 109.532 182.913 109.504 182.985 109.504H184.269C184.373 109.504 184.453 109.528 184.509 109.576C184.565 109.616 184.617 109.668 184.665 109.732C184.721 109.868 184.809 110 184.929 110.128C185.057 110.256 185.229 110.364 185.445 110.452C185.661 110.532 185.929 110.572 186.249 110.572C186.769 110.572 187.157 110.488 187.413 110.32C187.677 110.152 187.809 109.924 187.809 109.636C187.809 109.428 187.737 109.26 187.593 109.132C187.457 109.004 187.237 108.888 186.933 108.784C186.637 108.68 186.237 108.568 185.733 108.448C185.133 108.32 184.625 108.156 184.209 107.956C183.793 107.748 183.477 107.484 183.261 107.164C183.053 106.836 182.949 106.432 182.949 105.952C182.949 105.32 183.173 104.784 183.621 104.344C184.077 103.904 184.705 103.632 185.505 103.528V102.7C185.505 102.612 185.533 102.54 185.589 102.484C185.645 102.428 185.717 102.4 185.805 102.4H186.657C186.737 102.4 186.805 102.428 186.861 102.484C186.917 102.54 186.945 102.612 186.945 102.7V103.552C187.497 103.64 187.957 103.808 188.325 104.056C188.701 104.296 188.985 104.572 189.177 104.884C189.377 105.188 189.481 105.484 189.489 105.772C189.489 105.836 189.465 105.896 189.417 105.952C189.369 106 189.309 106.024 189.237 106.024H187.881C187.809 106.024 187.741 106.008 187.677 105.976C187.613 105.944 187.557 105.888 187.509 105.808C187.469 105.6 187.329 105.42 187.089 105.268C186.849 105.108 186.545 105.028 186.177 105.028C185.785 105.028 185.473 105.1 185.241 105.244C185.009 105.388 184.893 105.608 184.893 105.904C184.893 106.096 184.953 106.26 185.073 106.396C185.193 106.524 185.389 106.64 185.661 106.744C185.933 106.84 186.301 106.948 186.765 107.068C187.469 107.212 188.041 107.384 188.48 107.584C188.921 107.784 189.241 108.044 189.441 108.364C189.649 108.676 189.753 109.072 189.753 109.552C189.753 110.016 189.637 110.428 189.405 110.788C189.173 111.14 188.845 111.424 188.421 111.64C188.005 111.856 187.513 112 186.945 112.072V112.9C186.945 112.988 186.917 113.06 186.861 113.116C186.805 113.172 186.737 113.2 186.657 113.2H185.805ZM193.5 112C193.42 112 193.348 111.972 193.284 111.916C193.228 111.86 193.2 111.788 193.2 111.7V105.736L191.472 107.068C191.4 107.124 191.324 107.144 191.244 107.128C191.172 107.112 191.108 107.068 191.052 106.996L190.452 106.216C190.404 106.144 190.384 106.068 190.392 105.988C190.408 105.908 190.452 105.844 190.524 105.796L193.26 103.684C193.308 103.652 193.352 103.632 193.392 103.624C193.44 103.608 193.492 103.6 193.548 103.6H194.82C194.9 103.6 194.968 103.628 195.024 103.684C195.08 103.74 195.108 103.812 195.108 103.9V111.7C195.108 111.788 195.08 111.86 195.024 111.916C194.968 111.972 194.9 112 194.82 112H193.5ZM196.734 112C196.646 112 196.574 111.972 196.518 111.916C196.462 111.86 196.434 111.788 196.434 111.7V110.98C196.434 110.916 196.45 110.832 196.482 110.728C196.522 110.616 196.606 110.508 196.734 110.404L198.318 108.832C198.902 108.384 199.374 108.004 199.734 107.692C200.102 107.38 200.374 107.096 200.55 106.84C200.726 106.584 200.814 106.336 200.814 106.096C200.814 105.784 200.726 105.528 200.55 105.328C200.382 105.12 200.106 105.016 199.722 105.016C199.466 105.016 199.25 105.072 199.074 105.184C198.906 105.288 198.774 105.428 198.678 105.604C198.582 105.78 198.518 105.972 198.486 106.18C198.462 106.284 198.41 106.356 198.33 106.396C198.258 106.436 198.182 106.456 198.102 106.456H196.83C196.75 106.456 196.686 106.432 196.638 106.384C196.59 106.328 196.566 106.268 196.566 106.204C196.574 105.836 196.65 105.488 196.794 105.16C196.946 104.832 197.158 104.54 197.43 104.284C197.702 104.028 198.03 103.828 198.414 103.684C198.798 103.532 199.234 103.456 199.722 103.456C200.394 103.456 200.958 103.568 201.414 103.792C201.87 104.008 202.214 104.308 202.446 104.692C202.678 105.076 202.794 105.52 202.794 106.024C202.794 106.408 202.714 106.764 202.554 107.092C202.402 107.42 202.178 107.736 201.882 108.04C201.586 108.336 201.234 108.644 200.826 108.964L199.41 110.38H202.674C202.762 110.38 202.834 110.408 202.89 110.464C202.946 110.52 202.974 110.592 202.974 110.68V111.7C202.974 111.788 202.946 111.86 202.89 111.916C202.834 111.972 202.762 112 202.674 112H196.734ZM207.519 112.12C206.959 112.12 206.463 112.056 206.031 111.928C205.607 111.792 205.251 111.608 204.963 111.376C204.675 111.136 204.459 110.86 204.315 110.548C204.171 110.228 204.099 109.88 204.099 109.504C204.099 109.048 204.211 108.652 204.435 108.316C204.659 107.98 204.943 107.72 205.287 107.536C205.007 107.352 204.787 107.12 204.627 106.84C204.475 106.552 204.399 106.22 204.399 105.844C204.399 105.388 204.515 104.984 204.747 104.632C204.979 104.28 205.323 104 205.779 103.792C206.243 103.584 206.823 103.48 207.519 103.48C208.207 103.48 208.779 103.584 209.235 103.792C209.691 103.992 210.035 104.268 210.267 104.62C210.499 104.972 210.615 105.376 210.615 105.832C210.615 106.208 210.539 106.54 210.387 106.828C210.235 107.116 210.019 107.352 209.739 107.536C210.107 107.712 210.399 107.972 210.615 108.316C210.831 108.66 210.939 109.06 210.939 109.516C210.939 110.012 210.811 110.456 210.555 110.848C210.299 111.24 209.915 111.552 209.403 111.784C208.891 112.008 208.263 112.12 207.519 112.12ZM207.519 110.74C207.799 110.74 208.055 110.692 208.287 110.596C208.519 110.492 208.699 110.348 208.827 110.164C208.963 109.98 209.031 109.764 209.031 109.516C209.031 109.26 208.963 109.044 208.827 108.868C208.699 108.684 208.519 108.544 208.287 108.448C208.055 108.344 207.799 108.292 207.519 108.292C207.231 108.292 206.971 108.344 206.739 108.448C206.515 108.544 206.335 108.684 206.199 108.868C206.063 109.044 205.995 109.26 205.995 109.516C205.995 109.764 206.063 109.98 206.199 110.164C206.335 110.348 206.515 110.492 206.739 110.596C206.971 110.692 207.231 110.74 207.519 110.74ZM207.519 106.984C207.767 106.976 207.991 106.928 208.191 106.84C208.391 106.752 208.551 106.632 208.671 106.48C208.791 106.32 208.851 106.136 208.851 105.928C208.851 105.712 208.791 105.528 208.671 105.376C208.559 105.216 208.403 105.092 208.203 105.004C208.003 104.916 207.775 104.872 207.519 104.872C207.263 104.872 207.031 104.916 206.823 105.004C206.623 105.092 206.467 105.216 206.355 105.376C206.243 105.528 206.187 105.712 206.187 105.928C206.187 106.144 206.243 106.332 206.355 106.492C206.467 106.644 206.623 106.764 206.823 106.852C207.031 106.94 207.263 106.984 207.519 106.984ZM212.429 112C212.341 112 212.269 111.972 212.213 111.916C212.157 111.86 212.129 111.788 212.129 111.7V110.356C212.129 110.268 212.157 110.196 212.213 110.14C212.269 110.084 212.341 110.056 212.429 110.056H213.773C213.861 110.056 213.933 110.084 213.989 110.14C214.045 110.196 214.073 110.268 214.073 110.356V111.7C214.073 111.788 214.045 111.86 213.989 111.916C213.933 111.972 213.861 112 213.773 112H212.429ZM218.664 112.12C218.088 112.12 217.592 112.04 217.176 111.88C216.768 111.712 216.428 111.484 216.156 111.196C215.892 110.9 215.692 110.56 215.556 110.176C215.428 109.784 215.352 109.368 215.328 108.928C215.32 108.712 215.312 108.472 215.304 108.208C215.304 107.936 215.304 107.664 215.304 107.392C215.312 107.12 215.32 106.872 215.328 106.648C215.344 106.208 215.42 105.796 215.556 105.412C215.7 105.028 215.908 104.692 216.18 104.404C216.452 104.116 216.792 103.892 217.2 103.732C217.616 103.564 218.104 103.48 218.664 103.48C219.224 103.48 219.708 103.564 220.116 103.732C220.524 103.892 220.864 104.116 221.136 104.404C221.408 104.692 221.612 105.028 221.748 105.412C221.892 105.796 221.976 106.208 222 106.648C222.008 106.872 222.012 107.12 222.012 107.392C222.02 107.664 222.02 107.936 222.012 108.208C222.012 108.472 222.008 108.712 222 108.928C221.976 109.368 221.896 109.784 221.76 110.176C221.624 110.56 221.42 110.9 221.148 111.196C220.884 111.484 220.544 111.712 220.128 111.88C219.72 112.04 219.232 112.12 218.664 112.12ZM218.664 110.56C219.128 110.56 219.468 110.408 219.684 110.104C219.9 109.8 220.016 109.388 220.032 108.868C220.04 108.636 220.044 108.396 220.044 108.148C220.052 107.9 220.052 107.652 220.044 107.404C220.044 107.156 220.04 106.924 220.032 106.708C220.016 106.212 219.9 105.808 219.684 105.496C219.468 105.184 219.128 105.024 218.664 105.016C218.192 105.024 217.848 105.184 217.632 105.496C217.424 105.808 217.312 106.212 217.296 106.708C217.288 106.924 217.28 107.156 217.272 107.404C217.272 107.652 217.272 107.9 217.272 108.148C217.28 108.396 217.288 108.636 217.296 108.868C217.312 109.388 217.428 109.8 217.644 110.104C217.86 110.408 218.2 110.56 218.664 110.56ZM226.68 112.12C226.104 112.12 225.608 112.04 225.192 111.88C224.784 111.712 224.444 111.484 224.172 111.196C223.908 110.9 223.708 110.56 223.572 110.176C223.444 109.784 223.368 109.368 223.344 108.928C223.336 108.712 223.328 108.472 223.32 108.208C223.32 107.936 223.32 107.664 223.32 107.392C223.328 107.12 223.336 106.872 223.344 106.648C223.36 106.208 223.436 105.796 223.572 105.412C223.716 105.028 223.924 104.692 224.196 104.404C224.468 104.116 224.808 103.892 225.216 103.732C225.632 103.564 226.12 103.48 226.68 103.48C227.24 103.48 227.724 103.564 228.132 103.732C228.54 103.892 228.88 104.116 229.152 104.404C229.424 104.692 229.628 105.028 229.764 105.412C229.908 105.796 229.992 106.208 230.016 106.648C230.024 106.872 230.028 107.12 230.028 107.392C230.036 107.664 230.036 107.936 230.028 108.208C230.028 108.472 230.024 108.712 230.016 108.928C229.992 109.368 229.912 109.784 229.776 110.176C229.64 110.56 229.436 110.9 229.164 111.196C228.9 111.484 228.56 111.712 228.144 111.88C227.736 112.04 227.248 112.12 226.68 112.12ZM226.68 110.56C227.144 110.56 227.484 110.408 227.7 110.104C227.916 109.8 228.032 109.388 228.048 108.868C228.056 108.636 228.06 108.396 228.06 108.148C228.068 107.9 228.068 107.652 228.06 107.404C228.06 107.156 228.056 106.924 228.048 106.708C228.032 106.212 227.916 105.808 227.7 105.496C227.484 105.184 227.144 105.024 226.68 105.016C226.208 105.024 225.864 105.184 225.648 105.496C225.44 105.808 225.328 106.212 225.312 106.708C225.304 106.924 225.296 107.156 225.288 107.404C225.288 107.652 225.288 107.9 225.288 108.148C225.296 108.396 225.304 108.636 225.312 108.868C225.328 109.388 225.444 109.8 225.66 110.104C225.876 110.408 226.216 110.56 226.68 110.56Z" fill="#F8F8F8" fill-opacity="0.7"/>
<g filter="url(#filter2_bi_2341_8870)">
<g clip-path="url(#clip4_2341_8870)">
<rect x="16" y="145" width="231" height="58" rx="12" fill="#282828" fill-opacity="0.1"/>
<rect x="16" y="145" width="231" height="58" rx="12" fill="#121212" fill-opacity="0.2"/>
<g filter="url(#filter3_bdi_2341_8870)">
<circle cx="45" cy="174" r="9" fill="#F8F8F8" fill-opacity="0.01" shape-rendering="crispEdges"/>
<circle cx="45" cy="174" r="9" fill="#121212" fill-opacity="0.3" shape-rendering="crispEdges"/>
<circle cx="45" cy="174" r="8.5" stroke="url(#paint8_linear_2341_8870)" stroke-opacity="0.25" shape-rendering="crispEdges"/>
</g>
<circle cx="45" cy="174" r="4.5" fill="#F8F8F8"/>
<rect x="70" y="172" width="68" height="4" rx="1" fill="#F8F8F8"/>
<path d="M194.982 179.2C194.894 179.2 194.822 179.172 194.766 179.116C194.71 179.06 194.682 178.988 194.682 178.9V178.072C194.074 178 193.566 177.852 193.158 177.628C192.75 177.396 192.442 177.116 192.234 176.788C192.026 176.46 191.914 176.116 191.898 175.756C191.898 175.692 191.922 175.636 191.97 175.588C192.026 175.532 192.09 175.504 192.162 175.504H193.446C193.55 175.504 193.63 175.528 193.686 175.576C193.742 175.616 193.794 175.668 193.842 175.732C193.898 175.868 193.986 176 194.106 176.128C194.234 176.256 194.406 176.364 194.622 176.452C194.838 176.532 195.106 176.572 195.426 176.572C195.946 176.572 196.334 176.488 196.59 176.32C196.854 176.152 196.986 175.924 196.986 175.636C196.986 175.428 196.914 175.26 196.77 175.132C196.634 175.004 196.414 174.888 196.11 174.784C195.814 174.68 195.414 174.568 194.91 174.448C194.31 174.32 193.802 174.156 193.386 173.956C192.97 173.748 192.654 173.484 192.438 173.164C192.23 172.836 192.126 172.432 192.126 171.952C192.126 171.32 192.35 170.784 192.798 170.344C193.254 169.904 193.882 169.632 194.682 169.528V168.7C194.682 168.612 194.71 168.54 194.766 168.484C194.822 168.428 194.894 168.4 194.982 168.4H195.834C195.914 168.4 195.982 168.428 196.038 168.484C196.094 168.54 196.122 168.612 196.122 168.7V169.552C196.674 169.64 197.134 169.808 197.502 170.056C197.878 170.296 198.162 170.572 198.354 170.884C198.554 171.188 198.658 171.484 198.666 171.772C198.666 171.836 198.642 171.896 198.594 171.952C198.546 172 198.486 172.024 198.414 172.024H197.058C196.986 172.024 196.918 172.008 196.854 171.976C196.79 171.944 196.734 171.888 196.686 171.808C196.646 171.6 196.506 171.42 196.266 171.268C196.026 171.108 195.722 171.028 195.354 171.028C194.962 171.028 194.65 171.1 194.418 171.244C194.186 171.388 194.07 171.608 194.07 171.904C194.07 172.096 194.13 172.26 194.25 172.396C194.37 172.524 194.566 172.64 194.838 172.744C195.11 172.84 195.478 172.948 195.942 173.068C196.646 173.212 197.218 173.384 197.658 173.584C198.098 173.784 198.418 174.044 198.618 174.364C198.826 174.676 198.93 175.072 198.93 175.552C198.93 176.016 198.814 176.428 198.582 176.788C198.35 177.14 198.022 177.424 197.598 177.64C197.182 177.856 196.69 178 196.122 178.072V178.9C196.122 178.988 196.094 179.06 196.038 179.116C195.982 179.172 195.914 179.2 195.834 179.2H194.982ZM203.35 178.12C202.79 178.12 202.294 178.056 201.862 177.928C201.438 177.792 201.082 177.608 200.794 177.376C200.506 177.136 200.29 176.86 200.146 176.548C200.002 176.228 199.93 175.88 199.93 175.504C199.93 175.048 200.042 174.652 200.266 174.316C200.49 173.98 200.774 173.72 201.118 173.536C200.838 173.352 200.618 173.12 200.458 172.84C200.306 172.552 200.23 172.22 200.23 171.844C200.23 171.388 200.346 170.984 200.578 170.632C200.81 170.28 201.154 170 201.61 169.792C202.074 169.584 202.654 169.48 203.35 169.48C204.038 169.48 204.61 169.584 205.066 169.792C205.522 169.992 205.866 170.268 206.098 170.62C206.33 170.972 206.446 171.376 206.446 171.832C206.446 172.208 206.37 172.54 206.218 172.828C206.066 173.116 205.85 173.352 205.57 173.536C205.938 173.712 206.23 173.972 206.446 174.316C206.662 174.66 206.77 175.06 206.77 175.516C206.77 176.012 206.642 176.456 206.386 176.848C206.13 177.24 205.746 177.552 205.234 177.784C204.722 178.008 204.094 178.12 203.35 178.12ZM203.35 176.74C203.63 176.74 203.886 176.692 204.118 176.596C204.35 176.492 204.53 176.348 204.658 176.164C204.794 175.98 204.862 175.764 204.862 175.516C204.862 175.26 204.794 175.044 204.658 174.868C204.53 174.684 204.35 174.544 204.118 174.448C203.886 174.344 203.63 174.292 203.35 174.292C203.062 174.292 202.802 174.344 202.57 174.448C202.346 174.544 202.166 174.684 202.03 174.868C201.894 175.044 201.826 175.26 201.826 175.516C201.826 175.764 201.894 175.98 202.03 176.164C202.166 176.348 202.346 176.492 202.57 176.596C202.802 176.692 203.062 176.74 203.35 176.74ZM203.35 172.984C203.598 172.976 203.822 172.928 204.022 172.84C204.222 172.752 204.382 172.632 204.502 172.48C204.622 172.32 204.682 172.136 204.682 171.928C204.682 171.712 204.622 171.528 204.502 171.376C204.39 171.216 204.234 171.092 204.034 171.004C203.834 170.916 203.606 170.872 203.35 170.872C203.094 170.872 202.862 170.916 202.654 171.004C202.454 171.092 202.298 171.216 202.186 171.376C202.074 171.528 202.018 171.712 202.018 171.928C202.018 172.144 202.074 172.332 202.186 172.492C202.298 172.644 202.454 172.764 202.654 172.852C202.862 172.94 203.094 172.984 203.35 172.984ZM211.342 178.12C210.782 178.12 210.286 178.056 209.854 177.928C209.43 177.792 209.074 177.608 208.786 177.376C208.498 177.136 208.282 176.86 208.138 176.548C207.994 176.228 207.922 175.88 207.922 175.504C207.922 175.048 208.034 174.652 208.258 174.316C208.482 173.98 208.766 173.72 209.11 173.536C208.83 173.352 208.61 173.12 208.45 172.84C208.298 172.552 208.222 172.22 208.222 171.844C208.222 171.388 208.338 170.984 208.57 170.632C208.802 170.28 209.146 170 209.602 169.792C210.066 169.584 210.646 169.48 211.342 169.48C212.03 169.48 212.602 169.584 213.058 169.792C213.514 169.992 213.858 170.268 214.09 170.62C214.322 170.972 214.438 171.376 214.438 171.832C214.438 172.208 214.362 172.54 214.21 172.828C214.058 173.116 213.842 173.352 213.562 173.536C213.93 173.712 214.222 173.972 214.438 174.316C214.654 174.66 214.762 175.06 214.762 175.516C214.762 176.012 214.634 176.456 214.378 176.848C214.122 177.24 213.738 177.552 213.226 177.784C212.714 178.008 212.086 178.12 211.342 178.12ZM211.342 176.74C211.622 176.74 211.878 176.692 212.11 176.596C212.342 176.492 212.522 176.348 212.65 176.164C212.786 175.98 212.854 175.764 212.854 175.516C212.854 175.26 212.786 175.044 212.65 174.868C212.522 174.684 212.342 174.544 212.11 174.448C211.878 174.344 211.622 174.292 211.342 174.292C211.054 174.292 210.794 174.344 210.562 174.448C210.338 174.544 210.158 174.684 210.022 174.868C209.886 175.044 209.818 175.26 209.818 175.516C209.818 175.764 209.886 175.98 210.022 176.164C210.158 176.348 210.338 176.492 210.562 176.596C210.794 176.692 211.054 176.74 211.342 176.74ZM211.342 172.984C211.59 172.976 211.814 172.928 212.014 172.84C212.214 172.752 212.374 172.632 212.494 172.48C212.614 172.32 212.674 172.136 212.674 171.928C212.674 171.712 212.614 171.528 212.494 171.376C212.382 171.216 212.226 171.092 212.026 171.004C211.826 170.916 211.598 170.872 211.342 170.872C211.086 170.872 210.854 170.916 210.646 171.004C210.446 171.092 210.29 171.216 210.178 171.376C210.066 171.528 210.01 171.712 210.01 171.928C210.01 172.144 210.066 172.332 210.178 172.492C210.29 172.644 210.446 172.764 210.646 172.852C210.854 172.94 211.086 172.984 211.342 172.984ZM216.252 178C216.164 178 216.092 177.972 216.036 177.916C215.98 177.86 215.952 177.788 215.952 177.7V176.356C215.952 176.268 215.98 176.196 216.036 176.14C216.092 176.084 216.164 176.056 216.252 176.056H217.596C217.684 176.056 217.756 176.084 217.812 176.14C217.868 176.196 217.896 176.268 217.896 176.356V177.7C217.896 177.788 217.868 177.86 217.812 177.916C217.756 177.972 217.684 178 217.596 178H216.252ZM222.487 178.12C221.911 178.12 221.415 178.04 220.999 177.88C220.591 177.712 220.251 177.484 219.979 177.196C219.715 176.9 219.515 176.56 219.379 176.176C219.251 175.784 219.175 175.368 219.151 174.928C219.143 174.712 219.135 174.472 219.127 174.208C219.127 173.936 219.127 173.664 219.127 173.392C219.135 173.12 219.143 172.872 219.151 172.648C219.167 172.208 219.243 171.796 219.379 171.412C219.523 171.028 219.731 170.692 220.003 170.404C220.275 170.116 220.615 169.892 221.023 169.732C221.439 169.564 221.927 169.48 222.487 169.48C223.047 169.48 223.531 169.564 223.939 169.732C224.347 169.892 224.687 170.116 224.959 170.404C225.231 170.692 225.435 171.028 225.571 171.412C225.715 171.796 225.799 172.208 225.823 172.648C225.831 172.872 225.835 173.12 225.835 173.392C225.843 173.664 225.843 173.936 225.835 174.208C225.835 174.472 225.831 174.712 225.823 174.928C225.799 175.368 225.719 175.784 225.583 176.176C225.447 176.56 225.243 176.9 224.971 177.196C224.707 177.484 224.367 177.712 223.951 177.88C223.543 178.04 223.055 178.12 222.487 178.12ZM222.487 176.56C222.951 176.56 223.291 176.408 223.507 176.104C223.723 175.8 223.839 175.388 223.855 174.868C223.863 174.636 223.867 174.396 223.867 174.148C223.875 173.9 223.875 173.652 223.867 173.404C223.867 173.156 223.863 172.924 223.855 172.708C223.839 172.212 223.723 171.808 223.507 171.496C223.291 171.184 222.951 171.024 222.487 171.016C222.015 171.024 221.671 171.184 221.455 171.496C221.247 171.808 221.135 172.212 221.119 172.708C221.111 172.924 221.103 173.156 221.095 173.404C221.095 173.652 221.095 173.9 221.095 174.148C221.103 174.396 221.111 174.636 221.119 174.868C221.135 175.388 221.251 175.8 221.467 176.104C221.683 176.408 222.023 176.56 222.487 176.56ZM230.502 178.12C229.926 178.12 229.43 178.04 229.014 177.88C228.606 177.712 228.266 177.484 227.994 177.196C227.73 176.9 227.53 176.56 227.394 176.176C227.266 175.784 227.19 175.368 227.166 174.928C227.158 174.712 227.15 174.472 227.142 174.208C227.142 173.936 227.142 173.664 227.142 173.392C227.15 173.12 227.158 172.872 227.166 172.648C227.182 172.208 227.258 171.796 227.394 171.412C227.538 171.028 227.746 170.692 228.018 170.404C228.29 170.116 228.63 169.892 229.038 169.732C229.454 169.564 229.942 169.48 230.502 169.48C231.062 169.48 231.546 169.564 231.954 169.732C232.362 169.892 232.702 170.116 232.974 170.404C233.246 170.692 233.45 171.028 233.586 171.412C233.73 171.796 233.814 172.208 233.838 172.648C233.846 172.872 233.85 173.12 233.85 173.392C233.858 173.664 233.858 173.936 233.85 174.208C233.85 174.472 233.846 174.712 233.838 174.928C233.814 175.368 233.734 175.784 233.598 176.176C233.462 176.56 233.258 176.9 232.986 177.196C232.722 177.484 232.382 177.712 231.966 177.88C231.558 178.04 231.07 178.12 230.502 178.12ZM230.502 176.56C230.966 176.56 231.306 176.408 231.522 176.104C231.738 175.8 231.854 175.388 231.87 174.868C231.878 174.636 231.882 174.396 231.882 174.148C231.89 173.9 231.89 173.652 231.882 173.404C231.882 173.156 231.878 172.924 231.87 172.708C231.854 172.212 231.738 171.808 231.522 171.496C231.306 171.184 230.966 171.024 230.502 171.016C230.03 171.024 229.686 171.184 229.47 171.496C229.262 171.808 229.15 172.212 229.134 172.708C229.126 172.924 229.118 173.156 229.11 173.404C229.11 173.652 229.11 173.9 229.11 174.148C229.118 174.396 229.126 174.636 229.134 174.868C229.15 175.388 229.266 175.8 229.482 176.104C229.698 176.408 230.038 176.56 230.502 176.56Z" fill="#F8F8F8" fill-opacity="0.7"/>
</g>
<rect x="16.75" y="145.75" width="229.5" height="56.5" rx="11.25" stroke="#F8F8F8" stroke-opacity="0.4" stroke-width="1.5"/>
</g>
<g opacity="0.5">
<path d="M46.5 236.917L42.75 241.5L41.0833 239.833M51.5 239C51.5 243.142 48.1421 246.5 44 246.5C39.8579 246.5 36.5 243.142 36.5 239C36.5 234.858 39.8579 231.5 44 231.5C48.1421 231.5 51.5 234.858 51.5 239Z" stroke="#F8F8F8" stroke-width="2" stroke-linecap="round" stroke-linejoin="round"/>
</g>
<rect opacity="0.5" x="68" y="232" width="44" height="4" rx="1" fill="#F8F8F8"/>
<rect opacity="0.1" x="68" y="242" width="51.5" height="4" rx="1" fill="#F8F8F8"/>
<g opacity="0.5">
<path d="M158 236.917L154.25 241.5L152.583 239.833M163 239C163 243.142 159.642 246.5 155.5 246.5C151.358 246.5 148 243.142 148 239C148 234.858 151.358 231.5 155.5 231.5C159.642 231.5 163 234.858 163 239Z" stroke="#F8F8F8" stroke-width="2" stroke-linecap="round" stroke-linejoin="round"/>
</g>
<rect opacity="0.5" x="179.5" y="232" width="44" height="4" rx="1" fill="#F8F8F8"/>
<rect opacity="0.1" x="179.5" y="242" width="51.5" height="4" rx="1" fill="#F8F8F8"/>
<g opacity="0.5">
<path d="M46.5 276.917L42.75 281.5L41.0833 279.833M51.5 279C51.5 283.142 48.1421 286.5 44 286.5C39.8579 286.5 36.5 283.142 36.5 279C36.5 274.858 39.8579 271.5 44 271.5C48.1421 271.5 51.5 274.858 51.5 279Z" stroke="#F8F8F8" stroke-width="2" stroke-linecap="round" stroke-linejoin="round"/>
</g>
<rect opacity="0.5" x="68" y="272" width="44" height="4" rx="1" fill="#F8F8F8"/>
<rect opacity="0.1" x="68" y="282" width="51.5" height="4" rx="1" fill="#F8F8F8"/>
<g opacity="0.5">
<path d="M158 276.917L154.25 281.5L152.583 279.833M163 279C163 283.142 159.642 286.5 155.5 286.5C151.358 286.5 148 283.142 148 279C148 274.858 151.358 271.5 155.5 271.5C159.642 271.5 163 274.858 163 279Z" stroke="#F8F8F8" stroke-width="2" stroke-linecap="round" stroke-linejoin="round"/>
</g>
<rect opacity="0.5" x="179.5" y="272" width="44" height="4" rx="1" fill="#F8F8F8"/>
<rect opacity="0.1" x="179.5" y="282" width="51.5" height="4" rx="1" fill="#F8F8F8"/>
<g filter="url(#filter4_d_2341_8870)">
<rect x="47.5" y="299" width="168" height="48" rx="8" fill="#F8F8F8" fill-opacity="0.05" style="mix-blend-mode:luminosity" shape-rendering="crispEdges"/>
<rect x="48" y="299.5" width="167" height="47" rx="7.5" stroke="url(#paint9_linear_2341_8870)" stroke-opacity="0.25" shape-rendering="crispEdges"/>
</g>
</g>
<rect x="0.75" y="43.75" width="261.5" height="334.5" rx="15.25" stroke="#F8F8F8" stroke-opacity="0.1" stroke-width="1.5"/>
</g>
</g>
<defs>
<filter id="filter0_bdi_2341_8870" x="535" y="14" width="60" height="88" filterUnits="userSpaceOnUse" color-interpolation-filters="sRGB">
<feFlood flood-opacity="0" result="BackgroundImageFix"/>
<feGaussianBlur in="BackgroundImageFix" stdDeviation="6"/>
<feComposite in2="SourceAlpha" operator="in" result="effect1_backgroundBlur_2341_8870"/>
<feColorMatrix in="SourceAlpha" type="matrix" values="0 0 0 0 0 0 0 0 0 0 0 0 0 0 0 0 0 0 127 0" result="hardAlpha"/>
<feMorphology radius="16" operator="erode" in="SourceAlpha" result="effect2_dropShadow_2341_8870"/>
<feOffset dy="32"/>
<feGaussianBlur stdDeviation="12"/>
<feComposite in2="hardAlpha" operator="out"/>
<feColorMatrix type="matrix" values="0 0 0 0 0 0 0 0 0 0 0 0 0 0 0 0 0 0 0.4 0"/>
<feBlend mode="multiply" in2="effect1_backgroundBlur_2341_8870" result="effect2_dropShadow_2341_8870"/>
<feBlend mode="normal" in="SourceGraphic" in2="effect2_dropShadow_2341_8870" result="shape"/>
<feColorMatrix in="SourceAlpha" type="matrix" values="0 0 0 0 0 0 0 0 0 0 0 0 0 0 0 0 0 0 127 0" result="hardAlpha"/>
<feOffset/>
<feGaussianBlur stdDeviation="4"/>
<feComposite in2="hardAlpha" operator="arithmetic" k2="-1" k3="1"/>
<feColorMatrix type="matrix" values="0 0 0 0 0.972549 0 0 0 0 0.972549 0 0 0 0 0.972549 0 0 0 0.25 0"/>
<feBlend mode="normal" in2="shape" result="effect3_innerShadow_2341_8870"/>
</filter>
<filter id="filter1_d_2341_8870" x="527" y="30" width="76" height="76" filterUnits="userSpaceOnUse" color-interpolation-filters="sRGB">
<feFlood flood-opacity="0" result="BackgroundImageFix"/>
<feColorMatrix in="SourceAlpha" type="matrix" values="0 0 0 0 0 0 0 0 0 0 0 0 0 0 0 0 0 0 127 0" result="hardAlpha"/>
<feOffset dy="24"/>
<feGaussianBlur stdDeviation="12"/>
<feComposite in2="hardAlpha" operator="out"/>
<feColorMatrix type="matrix" values="0 0 0 0 0 0 0 0 0 0 0 0 0 0 0 0 0 0 0.3 0"/>
<feBlend mode="multiply" in2="BackgroundImageFix" result="effect1_dropShadow_2341_8870"/>
<feBlend mode="normal" in="SourceGraphic" in2="effect1_dropShadow_2341_8870" result="shape"/>
</filter>
<filter id="filter2_bi_2341_8870" x="-84" y="45" width="431" height="258" filterUnits="userSpaceOnUse" color-interpolation-filters="sRGB">
<feFlood flood-opacity="0" result="BackgroundImageFix"/>
<feGaussianBlur in="BackgroundImageFix" stdDeviation="50"/>
<feComposite in2="SourceAlpha" operator="in" result="effect1_backgroundBlur_2341_8870"/>
<feBlend mode="normal" in="SourceGraphic" in2="effect1_backgroundBlur_2341_8870" result="shape"/>
<feColorMatrix in="SourceAlpha" type="matrix" values="0 0 0 0 0 0 0 0 0 0 0 0 0 0 0 0 0 0 127 0" result="hardAlpha"/>
<feOffset dx="2" dy="4"/>
<feGaussianBlur stdDeviation="8"/>
<feComposite in2="hardAlpha" operator="arithmetic" k2="-1" k3="1"/>
<feColorMatrix type="matrix" values="0 0 0 0 0.972549 0 0 0 0 0.972549 0 0 0 0 0.972549 0 0 0 0.06 0"/>
<feBlend mode="normal" in2="shape" result="effect2_innerShadow_2341_8870"/>
</filter>
<filter id="filter3_bdi_2341_8870" x="24" y="153" width="42" height="70" filterUnits="userSpaceOnUse" color-interpolation-filters="sRGB">
<feFlood flood-opacity="0" result="BackgroundImageFix"/>
<feGaussianBlur in="BackgroundImageFix" stdDeviation="6"/>
<feComposite in2="SourceAlpha" operator="in" result="effect1_backgroundBlur_2341_8870"/>
<feColorMatrix in="SourceAlpha" type="matrix" values="0 0 0 0 0 0 0 0 0 0 0 0 0 0 0 0 0 0 127 0" result="hardAlpha"/>
<feMorphology radius="16" operator="erode" in="SourceAlpha" result="effect2_dropShadow_2341_8870"/>
<feOffset dy="32"/>
<feGaussianBlur stdDeviation="12"/>
<feComposite in2="hardAlpha" operator="out"/>
<feColorMatrix type="matrix" values="0 0 0 0 0 0 0 0 0 0 0 0 0 0 0 0 0 0 0.4 0"/>
<feBlend mode="multiply" in2="effect1_backgroundBlur_2341_8870" result="effect2_dropShadow_2341_8870"/>
<feBlend mode="normal" in="SourceGraphic" in2="effect2_dropShadow_2341_8870" result="shape"/>
<feColorMatrix in="SourceAlpha" type="matrix" values="0 0 0 0 0 0 0 0 0 0 0 0 0 0 0 0 0 0 127 0" result="hardAlpha"/>
<feOffset/>
<feGaussianBlur stdDeviation="4"/>
<feComposite in2="hardAlpha" operator="arithmetic" k2="-1" k3="1"/>
<feColorMatrix type="matrix" values="0 0 0 0 0.972549 0 0 0 0 0.972549 0 0 0 0 0.972549 0 0 0 0.25 0"/>
<feBlend mode="normal" in2="shape" result="effect3_innerShadow_2341_8870"/>
</filter>
<filter id="filter4_d_2341_8870" x="23.5" y="299" width="216" height="96" filterUnits="userSpaceOnUse" color-interpolation-filters="sRGB">
<feFlood flood-opacity="0" result="BackgroundImageFix"/>
<feColorMatrix in="SourceAlpha" type="matrix" values="0 0 0 0 0 0 0 0 0 0 0 0 0 0 0 0 0 0 127 0" result="hardAlpha"/>
<feOffset dy="24"/>
<feGaussianBlur stdDeviation="12"/>
<feComposite in2="hardAlpha" operator="out"/>
<feColorMatrix type="matrix" values="0 0 0 0 0 0 0 0 0 0 0 0 0 0 0 0 0 0 0.3 0"/>
<feBlend mode="multiply" in2="BackgroundImageFix" result="effect1_dropShadow_2341_8870"/>
<feBlend mode="normal" in="SourceGraphic" in2="effect1_dropShadow_2341_8870" result="shape"/>
</filter>
<linearGradient id="paint0_linear_2341_8870" x1="433" y1="74.5" x2="433" y2="336" gradientUnits="userSpaceOnUse">
<stop offset="0.704257" stop-color="#D9D9D9"/>
<stop offset="1" stop-color="#737373" stop-opacity="0"/>
</linearGradient>
<linearGradient id="paint1_linear_2341_8870" x1="289" y1="30" x2="294.22" y2="43.1775" gradientUnits="userSpaceOnUse">
<stop stop-color="white" stop-opacity="0.4"/>
<stop offset="0.4" stop-color="white" stop-opacity="0.01"/>
<stop offset="0.6" stop-color="white" stop-opacity="0.01"/>
<stop offset="1" stop-color="white" stop-opacity="0.1"/>
</linearGradient>
<linearGradient id="paint2_linear_2341_8870" x1="289" y1="33" x2="291.61" y2="39.5887" gradientUnits="userSpaceOnUse">
<stop stop-color="white" stop-opacity="0.4"/>
<stop offset="0.4" stop-color="white" stop-opacity="0.01"/>
<stop offset="0.6" stop-color="white" stop-opacity="0.01"/>
<stop offset="1" stop-color="white" stop-opacity="0.1"/>
</linearGradient>
<linearGradient id="paint3_linear_2341_8870" x1="405" y1="30" x2="410.22" y2="43.1775" gradientUnits="userSpaceOnUse">
<stop stop-color="white" stop-opacity="0.4"/>
<stop offset="0.4" stop-color="white" stop-opacity="0.01"/>
<stop offset="0.6" stop-color="white" stop-opacity="0.01"/>
<stop offset="1" stop-color="white" stop-opacity="0.1"/>
</linearGradient>
<linearGradient id="paint4_linear_2341_8870" x1="405" y1="33" x2="407.61" y2="39.5887" gradientUnits="userSpaceOnUse">
<stop stop-color="white" stop-opacity="0.4"/>
<stop offset="0.4" stop-color="white" stop-opacity="0.01"/>
<stop offset="0.6" stop-color="white" stop-opacity="0.01"/>
<stop offset="1" stop-color="white" stop-opacity="0.1"/>
</linearGradient>
<linearGradient id="paint5_linear_2341_8870" x1="565" y1="30" x2="577.181" y2="60.7474" gradientUnits="userSpaceOnUse">
<stop stop-color="white" stop-opacity="0.4"/>
<stop offset="0.4" stop-color="white" stop-opacity="0.01"/>
<stop offset="0.6" stop-color="white" stop-opacity="0.01"/>
<stop offset="1" stop-color="white" stop-opacity="0.1"/>
</linearGradient>
<linearGradient id="paint6_linear_2341_8870" x1="411" y1="135" x2="411" y2="233" gradientUnits="userSpaceOnUse">
<stop stop-color="white" stop-opacity="0.4"/>
<stop offset="1" stop-color="white" stop-opacity="0"/>
</linearGradient>
<linearGradient id="paint7_linear_2341_8870" x1="131.5" y1="101.536" x2="131.5" y2="307" gradientUnits="userSpaceOnUse">
<stop stop-color="#D9D9D9"/>
<stop offset="1" stop-color="#737373" stop-opacity="0"/>
</linearGradient>
<linearGradient id="paint8_linear_2341_8870" x1="45" y1="165" x2="52.8304" y2="184.766" gradientUnits="userSpaceOnUse">
<stop stop-color="white" stop-opacity="0.4"/>
<stop offset="0.4" stop-color="white" stop-opacity="0.01"/>
<stop offset="0.6" stop-color="white" stop-opacity="0.01"/>
<stop offset="1" stop-color="white" stop-opacity="0.1"/>
</linearGradient>
<linearGradient id="paint9_linear_2341_8870" x1="131.5" y1="299" x2="138.315" y2="359.21" gradientUnits="userSpaceOnUse">
<stop stop-color="white" stop-opacity="0.4"/>
<stop offset="0.4" stop-color="white" stop-opacity="0.01"/>
<stop offset="0.6" stop-color="white" stop-opacity="0.01"/>
<stop offset="1" stop-color="white" stop-opacity="0.1"/>
</linearGradient>
<clipPath id="clip0_2341_8870">
<rect x="547" y="26" width="36" height="36" rx="18" fill="white"/>
</clipPath>
<clipPath id="clip1_2341_8870">
<rect width="12" height="12" fill="white" transform="translate(559 38)"/>
</clipPath>
<clipPath id="clip2_2341_8870">
<rect y="43" width="263" height="264" rx="16" fill="white"/>
</clipPath>
<clipPath id="clip3_2341_8870">
<rect y="43" width="263" height="336" rx="16" fill="white"/>
</clipPath>
<clipPath id="clip4_2341_8870">
<rect x="16" y="145" width="231" height="58" rx="12" fill="white"/>
</clipPath>
</defs>
</svg>
