<svg width="599" height="307" viewBox="0 0 599 307" fill="none" xmlns="http://www.w3.org/2000/svg">
<g clip-path="url(#clip0_120_2)">
<mask id="mask0_120_2" style="mask-type:alpha" maskUnits="userSpaceOnUse" x="302" y="18" width="332" height="336">
<path d="M634 18H302V354H634V18Z" fill="url(#paint0_linear_120_2)"/>
</mask>
<g mask="url(#mask0_120_2)">
<path d="M583 0.75H283C274.578 0.75 267.75 7.57766 267.75 16V291C267.75 299.422 274.578 306.25 283 306.25H583C591.422 306.25 598.25 299.422 598.25 291V16C598.25 7.57766 591.422 0.75 583 0.75Z" stroke="#F8F8F8" stroke-opacity="0.1" stroke-width="1.5"/>
<path d="M405 39C406.657 39 408 37.6569 408 36C408 34.3431 406.657 33 405 33C403.343 33 402 34.3431 402 36C402 37.6569 403.343 39 405 39Z" fill="#282828" fill-opacity="0.7"/>
<g filter="url(#filter0_di_120_2)">
<mask id="mask1_120_2" style="mask-type:luminance" maskUnits="userSpaceOnUse" x="547" y="26" width="36" height="36">
<path d="M583 44C583 34.0589 574.941 26 565 26C555.059 26 547 34.0589 547 44C547 53.9411 555.059 62 565 62C574.941 62 583 53.9411 583 44Z" fill="white"/>
</mask>
<g mask="url(#mask1_120_2)">
<g filter="url(#filter1_d_120_2)">
<g style="mix-blend-mode:luminosity">
<path d="M579 44C579 36.268 572.732 30 565 30C557.268 30 551 36.268 551 44C551 51.732 557.268 58 565 58C572.732 58 579 51.732 579 44Z" fill="#F8F8F8" fill-opacity="0.05"/>
</g>
<path d="M578.25 44C578.25 36.6822 572.318 30.75 565 30.75C557.682 30.75 551.75 36.6822 551.75 44C551.75 51.3178 557.682 57.25 565 57.25C572.318 57.25 578.25 51.3178 578.25 44Z" stroke="url(#paint1_linear_120_2)" stroke-opacity="0.25" stroke-width="1.5"/>
<mask id="mask2_120_2" style="mask-type:luminance" maskUnits="userSpaceOnUse" x="559" y="38" width="12" height="12">
<path d="M571 38H559V50H571V38Z" fill="white"/>
</mask>
<g mask="url(#mask2_120_2)">
<path d="M560.5 45.5L563.647 48L569.5 40" stroke="#F8F8F8" stroke-width="2" stroke-linecap="square"/>
</g>
</g>
</g>
<path d="M582.25 44C582.25 34.4731 574.527 26.75 565 26.75C555.473 26.75 547.75 34.4731 547.75 44C547.75 53.5269 555.473 61.25 565 61.25C574.527 61.25 582.25 53.5269 582.25 44Z" stroke="#F8F8F8" stroke-opacity="0.4" stroke-width="1.5"/>
</g>
<path opacity="0.05" d="M313 153H285C283.895 153 283 153.895 283 155V231C283 232.105 283.895 233 285 233H313C314.105 233 315 232.105 315 231V155C315 153.895 314.105 153 313 153Z" fill="#F8F8F8"/>
<path opacity="0.1" d="M347 114H319C317.895 114 317 114.895 317 116V231C317 232.105 317.895 233 319 233H347C348.105 233 349 232.105 349 231V116C349 114.895 348.105 114 347 114Z" fill="#F8F8F8"/>
<path opacity="0.05" d="M391 187H363C361.895 187 361 187.895 361 189V231C361 232.105 361.895 233 363 233H391C392.105 233 393 232.105 393 231V189C393 187.895 392.105 187 391 187Z" fill="#F8F8F8"/>
<path opacity="0.5" d="M426 131H396C395.448 131 395 131.448 395 132C395 132.552 395.448 133 396 133H426C426.552 133 427 132.552 427 132C427 131.448 426.552 131 426 131Z" fill="#F8F8F8" fill-opacity="0.95"/>
<path opacity="0.5" d="M425 135H397C395.895 135 395 135.895 395 137V231C395 232.105 395.895 233 397 233H425C426.105 233 427 232.105 427 231V137C427 135.895 426.105 135 425 135Z" fill="url(#paint2_linear_120_2)"/>
<path opacity="0.05" d="M469 153H441C439.895 153 439 153.895 439 155V231C439 232.105 439.895 233 441 233H469C470.105 233 471 232.105 471 231V155C471 153.895 470.105 153 469 153Z" fill="#F8F8F8"/>
<path opacity="0.05" d="M503 65H475C473.895 65 473 65.8954 473 67V231C473 232.105 473.895 233 475 233H503C504.105 233 505 232.105 505 231V67C505 65.8954 504.105 65 503 65Z" fill="#F8F8F8"/>
<path opacity="0.05" d="M547 201H519C517.895 201 517 201.895 517 203V231C517 232.105 517.895 233 519 233H547C548.105 233 549 232.105 549 231V203C549 201.895 548.105 201 547 201Z" fill="#F8F8F8"/>
<path opacity="0.1" d="M581 213H553C551.895 213 551 213.895 551 215V231C551 232.105 551.895 233 553 233H581C582.105 233 583 232.105 583 231V215C583 213.895 582.105 213 581 213Z" fill="#F8F8F8"/>
<g opacity="0.1">
<mask id="mask3_120_2" style="mask-type:luminance" maskUnits="userSpaceOnUse" x="267" y="241" width="332" height="4">
<g opacity="0.1">
<path d="M267 241H599V245H267V241Z" fill="white"/>
</g>
</mask>
<g mask="url(#mask3_120_2)">
<path d="M267 242.5H599V239.5H267V242.5Z" fill="#F8F8F8"/>
</g>
<path d="M349 241V245" stroke="#F8F8F8" stroke-width="1.5" stroke-linecap="round"/>
<path d="M361 241V245" stroke="#F8F8F8" stroke-width="1.5" stroke-linecap="round"/>
<path d="M427 241V245" stroke="#F8F8F8" stroke-width="1.5" stroke-linecap="round"/>
<path d="M439 241V245" stroke="#F8F8F8" stroke-width="1.5" stroke-linecap="round"/>
<path d="M505 241V245" stroke="#F8F8F8" stroke-width="1.5" stroke-linecap="round"/>
<path d="M517 241V245" stroke="#F8F8F8" stroke-width="1.5" stroke-linecap="round"/>
<path d="M583 241V245" stroke="#F8F8F8" stroke-width="1.5" stroke-linecap="round"/>
</g>
<path opacity="0.5" d="M334 269H292C291.448 269 291 269.448 291 270V272C291 272.552 291.448 273 292 273H334C334.552 273 335 272.552 335 272V270C335 269.448 334.552 269 334 269Z" fill="#F8F8F8"/>
<path opacity="0.1" d="M432 279H292C291.448 279 291 279.448 291 280V282C291 282.552 291.448 283 292 283H432C432.552 283 433 282.552 433 282V280C433 279.448 432.552 279 432 279Z" fill="#F8F8F8"/>
<path opacity="0.5" d="M574 269H532C531.448 269 531 269.448 531 270V272C531 272.552 531.448 273 532 273H574C574.552 273 575 272.552 575 272V270C575 269.448 574.552 269 574 269Z" fill="#F8F8F8"/>
<path opacity="0.1" d="M574 279H434C433.448 279 433 279.448 433 280V282C433 282.552 433.448 283 434 283H574C574.552 283 575 282.552 575 282V280C575 279.448 574.552 279 574 279Z" fill="#F8F8F8"/>
</g>
<mask id="mask4_120_2" style="mask-type:luminance" maskUnits="userSpaceOnUse" x="0" y="43" width="263" height="264">
<path d="M247 43H16C7.16344 43 0 50.1634 0 59V291C0 299.837 7.16344 307 16 307H247C255.837 307 263 299.837 263 291V59C263 50.1634 255.837 43 247 43Z" fill="white"/>
</mask>
<g mask="url(#mask4_120_2)">
<mask id="mask5_120_2" style="mask-type:alpha" maskUnits="userSpaceOnUse" x="0" y="43" width="263" height="264">
<path d="M263 43H0V307H263V43Z" fill="url(#paint3_linear_120_2)"/>
</mask>
<g mask="url(#mask5_120_2)">
<mask id="mask6_120_2" style="mask-type:luminance" maskUnits="userSpaceOnUse" x="0" y="43" width="263" height="336">
<path d="M247 43H16C7.16344 43 0 50.1634 0 59V363C0 371.837 7.16344 379 16 379H247C255.837 379 263 371.837 263 363V59C263 50.1634 255.837 43 247 43Z" fill="white"/>
</mask>
<g mask="url(#mask6_120_2)">
<path d="M235 79H28C21.3726 79 16 84.3726 16 91V125C16 131.627 21.3726 137 28 137H235C241.627 137 247 131.627 247 125V91C247 84.3726 241.627 79 235 79Z" fill="#F8F8F8" fill-opacity="0.01"/>
<path d="M45 117C49.9706 117 54 112.971 54 108C54 103.029 49.9706 99 45 99C40.0294 99 36 103.029 36 108C36 112.971 40.0294 117 45 117Z" fill="#F8F8F8" fill-opacity="0.01"/>
<path d="M45 117C49.9706 117 54 112.971 54 108C54 103.029 49.9706 99 45 99C40.0294 99 36 103.029 36 108C36 112.971 40.0294 117 45 117Z" fill="#121212" fill-opacity="0.3"/>
<path d="M45 116.5C49.6944 116.5 53.5 112.694 53.5 108C53.5 103.306 49.6944 99.5 45 99.5C40.3056 99.5 36.5 103.306 36.5 108C36.5 112.694 40.3056 116.5 45 116.5Z" stroke="#F8F8F8" stroke-opacity="0.1"/>
<path opacity="0.1" d="M170 106H71C70.4477 106 70 106.448 70 107V109C70 109.552 70.4477 110 71 110H170C170.552 110 171 109.552 171 109V107C171 106.448 170.552 106 170 106Z" fill="#F8F8F8"/>
<path d="M185.805 113.2C185.717 113.2 185.645 113.172 185.589 113.116C185.533 113.06 185.505 112.988 185.505 112.9V112.072C184.897 112 184.389 111.852 183.981 111.628C183.573 111.396 183.265 111.116 183.057 110.788C182.849 110.46 182.737 110.116 182.721 109.756C182.721 109.692 182.745 109.636 182.793 109.588C182.849 109.532 182.913 109.504 182.985 109.504H184.269C184.373 109.504 184.453 109.528 184.509 109.576C184.565 109.616 184.617 109.668 184.665 109.732C184.721 109.868 184.809 110 184.929 110.128C185.057 110.256 185.229 110.364 185.445 110.452C185.661 110.532 185.929 110.572 186.249 110.572C186.769 110.572 187.157 110.488 187.413 110.32C187.677 110.152 187.809 109.924 187.809 109.636C187.809 109.428 187.737 109.26 187.593 109.132C187.457 109.004 187.237 108.888 186.933 108.784C186.637 108.68 186.237 108.568 185.733 108.448C185.133 108.32 184.625 108.156 184.209 107.956C183.793 107.748 183.477 107.484 183.261 107.164C183.053 106.836 182.949 106.432 182.949 105.952C182.949 105.32 183.173 104.784 183.621 104.344C184.077 103.904 184.705 103.632 185.505 103.528V102.7C185.505 102.612 185.533 102.54 185.589 102.484C185.645 102.428 185.717 102.4 185.805 102.4H186.657C186.737 102.4 186.805 102.428 186.861 102.484C186.917 102.54 186.945 102.612 186.945 102.7V103.552C187.497 103.64 187.957 103.808 188.325 104.056C188.701 104.296 188.985 104.572 189.177 104.884C189.377 105.188 189.481 105.484 189.489 105.772C189.489 105.836 189.465 105.896 189.417 105.952C189.369 106 189.309 106.024 189.237 106.024H187.881C187.809 106.024 187.741 106.008 187.677 105.976C187.613 105.944 187.557 105.888 187.509 105.808C187.469 105.6 187.329 105.42 187.089 105.268C186.849 105.108 186.545 105.028 186.177 105.028C185.785 105.028 185.473 105.1 185.241 105.244C185.009 105.388 184.893 105.608 184.893 105.904C184.893 106.096 184.953 106.26 185.073 106.396C185.193 106.524 185.389 106.64 185.661 106.744C185.933 106.84 186.301 106.948 186.765 107.068C187.469 107.212 188.041 107.384 188.48 107.584C188.921 107.784 189.241 108.044 189.441 108.364C189.649 108.676 189.753 109.072 189.753 109.552C189.753 110.016 189.637 110.428 189.405 110.788C189.173 111.14 188.845 111.424 188.421 111.64C188.005 111.856 187.513 112 186.945 112.072V112.9C186.945 112.988 186.917 113.06 186.861 113.116C186.805 113.172 186.737 113.2 186.657 113.2H185.805ZM193.5 112C193.42 112 193.348 111.972 193.284 111.916C193.228 111.86 193.2 111.788 193.2 111.7V105.736L191.472 107.068C191.4 107.124 191.324 107.144 191.244 107.128C191.172 107.112 191.108 107.068 191.052 106.996L190.452 106.216C190.404 106.144 190.384 106.068 190.392 105.988C190.408 105.908 190.452 105.844 190.524 105.796L193.26 103.684C193.308 103.652 193.352 103.632 193.392 103.624C193.44 103.608 193.492 103.6 193.548 103.6H194.82C194.9 103.6 194.968 103.628 195.024 103.684C195.08 103.74 195.108 103.812 195.108 103.9V111.7C195.108 111.788 195.08 111.86 195.024 111.916C194.968 111.972 194.9 112 194.82 112H193.5ZM196.734 112C196.646 112 196.574 111.972 196.518 111.916C196.462 111.86 196.434 111.788 196.434 111.7V110.98C196.434 110.916 196.45 110.832 196.482 110.728C196.522 110.616 196.606 110.508 196.734 110.404L198.318 108.832C198.902 108.384 199.374 108.004 199.734 107.692C200.102 107.38 200.374 107.096 200.55 106.84C200.726 106.584 200.814 106.336 200.814 106.096C200.814 105.784 200.726 105.528 200.55 105.328C200.382 105.12 200.106 105.016 199.722 105.016C199.466 105.016 199.25 105.072 199.074 105.184C198.906 105.288 198.774 105.428 198.678 105.604C198.582 105.78 198.518 105.972 198.486 106.18C198.462 106.284 198.41 106.356 198.33 106.396C198.258 106.436 198.182 106.456 198.102 106.456H196.83C196.75 106.456 196.686 106.432 196.638 106.384C196.59 106.328 196.566 106.268 196.566 106.204C196.574 105.836 196.65 105.488 196.794 105.16C196.946 104.832 197.158 104.54 197.43 104.284C197.702 104.028 198.03 103.828 198.414 103.684C198.798 103.532 199.234 103.456 199.722 103.456C200.394 103.456 200.958 103.568 201.414 103.792C201.87 104.008 202.214 104.308 202.446 104.692C202.678 105.076 202.794 105.52 202.794 106.024C202.794 106.408 202.714 106.764 202.554 107.092C202.402 107.42 202.178 107.736 201.882 108.04C201.586 108.336 201.234 108.644 200.826 108.964L199.41 110.38H202.674C202.762 110.38 202.834 110.408 202.89 110.464C202.946 110.52 202.974 110.592 202.974 110.68V111.7C202.974 111.788 202.946 111.86 202.89 111.916C202.834 111.972 202.762 112 202.674 112H196.734ZM207.519 112.12C206.959 112.12 206.463 112.056 206.031 111.928C205.607 111.792 205.251 111.608 204.963 111.376C204.675 111.136 204.459 110.86 204.315 110.548C204.171 110.228 204.099 109.88 204.099 109.504C204.099 109.048 204.211 108.652 204.435 108.316C204.659 107.98 204.943 107.72 205.287 107.536C205.007 107.352 204.787 107.12 204.627 106.84C204.475 106.552 204.399 106.22 204.399 105.844C204.399 105.388 204.515 104.984 204.747 104.632C204.979 104.28 205.323 104 205.779 103.792C206.243 103.584 206.823 103.48 207.519 103.48C208.207 103.48 208.779 103.584 209.235 103.792C209.691 103.992 210.035 104.268 210.267 104.62C210.499 104.972 210.615 105.376 210.615 105.832C210.615 106.208 210.539 106.54 210.387 106.828C210.235 107.116 210.019 107.352 209.739 107.536C210.107 107.712 210.399 107.972 210.615 108.316C210.831 108.66 210.939 109.06 210.939 109.516C210.939 110.012 210.811 110.456 210.555 110.848C210.299 111.24 209.915 111.552 209.403 111.784C208.891 112.008 208.263 112.12 207.519 112.12ZM207.519 110.74C207.799 110.74 208.055 110.692 208.287 110.596C208.519 110.492 208.699 110.348 208.827 110.164C208.963 109.98 209.031 109.764 209.031 109.516C209.031 109.26 208.963 109.044 208.827 108.868C208.699 108.684 208.519 108.544 208.287 108.448C208.055 108.344 207.799 108.292 207.519 108.292C207.231 108.292 206.971 108.344 206.739 108.448C206.515 108.544 206.335 108.684 206.199 108.868C206.063 109.044 205.995 109.26 205.995 109.516C205.995 109.764 206.063 109.98 206.199 110.164C206.335 110.348 206.515 110.492 206.739 110.596C206.971 110.692 207.231 110.74 207.519 110.74ZM207.519 106.984C207.767 106.976 207.991 106.928 208.191 106.84C208.391 106.752 208.551 106.632 208.671 106.48C208.791 106.32 208.851 106.136 208.851 105.928C208.851 105.712 208.791 105.528 208.671 105.376C208.559 105.216 208.403 105.092 208.203 105.004C208.003 104.916 207.775 104.872 207.519 104.872C207.263 104.872 207.031 104.916 206.823 105.004C206.623 105.092 206.467 105.216 206.355 105.376C206.243 105.528 206.187 105.712 206.187 105.928C206.187 106.144 206.243 106.332 206.355 106.492C206.467 106.644 206.623 106.764 206.823 106.852C207.031 106.94 207.263 106.984 207.519 106.984ZM212.429 112C212.341 112 212.269 111.972 212.213 111.916C212.157 111.86 212.129 111.788 212.129 111.7V110.356C212.129 110.268 212.157 110.196 212.213 110.14C212.269 110.084 212.341 110.056 212.429 110.056H213.773C213.861 110.056 213.933 110.084 213.989 110.14C214.045 110.196 214.073 110.268 214.073 110.356V111.7C214.073 111.788 214.045 111.86 213.989 111.916C213.933 111.972 213.861 112 213.773 112H212.429ZM218.664 112.12C218.088 112.12 217.592 112.04 217.176 111.88C216.768 111.712 216.428 111.484 216.156 111.196C215.892 110.9 215.692 110.56 215.556 110.176C215.428 109.784 215.352 109.368 215.328 108.928C215.32 108.712 215.312 108.472 215.304 108.208C215.304 107.936 215.304 107.664 215.304 107.392C215.312 107.12 215.32 106.872 215.328 106.648C215.344 106.208 215.42 105.796 215.556 105.412C215.7 105.028 215.908 104.692 216.18 104.404C216.452 104.116 216.792 103.892 217.2 103.732C217.616 103.564 218.104 103.48 218.664 103.48C219.224 103.48 219.708 103.564 220.116 103.732C220.524 103.892 220.864 104.116 221.136 104.404C221.408 104.692 221.612 105.028 221.748 105.412C221.892 105.796 221.976 106.208 222 106.648C222.008 106.872 222.012 107.12 222.012 107.392C222.02 107.664 222.02 107.936 222.012 108.208C222.012 108.472 222.008 108.712 222 108.928C221.976 109.368 221.896 109.784 221.76 110.176C221.624 110.56 221.42 110.9 221.148 111.196C220.884 111.484 220.544 111.712 220.128 111.88C219.72 112.04 219.232 112.12 218.664 112.12ZM218.664 110.56C219.128 110.56 219.468 110.408 219.684 110.104C219.9 109.8 220.016 109.388 220.032 108.868C220.04 108.636 220.044 108.396 220.044 108.148C220.052 107.9 220.052 107.652 220.044 107.404C220.044 107.156 220.04 106.924 220.032 106.708C220.016 106.212 219.9 105.808 219.684 105.496C219.468 105.184 219.128 105.024 218.664 105.016C218.192 105.024 217.848 105.184 217.632 105.496C217.424 105.808 217.312 106.212 217.296 106.708C217.288 106.924 217.28 107.156 217.272 107.404C217.272 107.652 217.272 107.9 217.272 108.148C217.28 108.396 217.288 108.636 217.296 108.868C217.312 109.388 217.428 109.8 217.644 110.104C217.86 110.408 218.2 110.56 218.664 110.56ZM226.68 112.12C226.104 112.12 225.608 112.04 225.192 111.88C224.784 111.712 224.444 111.484 224.172 111.196C223.908 110.9 223.708 110.56 223.572 110.176C223.444 109.784 223.368 109.368 223.344 108.928C223.336 108.712 223.328 108.472 223.32 108.208C223.32 107.936 223.32 107.664 223.32 107.392C223.328 107.12 223.336 106.872 223.344 106.648C223.36 106.208 223.436 105.796 223.572 105.412C223.716 105.028 223.924 104.692 224.196 104.404C224.468 104.116 224.808 103.892 225.216 103.732C225.632 103.564 226.12 103.48 226.68 103.48C227.24 103.48 227.724 103.564 228.132 103.732C228.54 103.892 228.88 104.116 229.152 104.404C229.424 104.692 229.628 105.028 229.764 105.412C229.908 105.796 229.992 106.208 230.016 106.648C230.024 106.872 230.028 107.12 230.028 107.392C230.036 107.664 230.036 107.936 230.028 108.208C230.028 108.472 230.024 108.712 230.016 108.928C229.992 109.368 229.912 109.784 229.776 110.176C229.64 110.56 229.436 110.9 229.164 111.196C228.9 111.484 228.56 111.712 228.144 111.88C227.736 112.04 227.248 112.12 226.68 112.12ZM226.68 110.56C227.144 110.56 227.484 110.408 227.7 110.104C227.916 109.8 228.032 109.388 228.048 108.868C228.056 108.636 228.06 108.396 228.06 108.148C228.068 107.9 228.068 107.652 228.06 107.404C228.06 107.156 228.056 106.924 228.048 106.708C228.032 106.212 227.916 105.808 227.7 105.496C227.484 105.184 227.144 105.024 226.68 105.016C226.208 105.024 225.864 105.184 225.648 105.496C225.44 105.808 225.328 106.212 225.312 106.708C225.304 106.924 225.296 107.156 225.288 107.404C225.288 107.652 225.288 107.9 225.288 108.148C225.296 108.396 225.304 108.636 225.312 108.868C225.328 109.388 225.444 109.8 225.66 110.104C225.876 110.408 226.216 110.56 226.68 110.56Z" fill="#F8F8F8" fill-opacity="0.7"/>
<g filter="url(#filter2_i_120_2)">
<mask id="mask7_120_2" style="mask-type:luminance" maskUnits="userSpaceOnUse" x="16" y="145" width="231" height="58">
<path d="M235 145H28C21.3726 145 16 150.373 16 157V191C16 197.627 21.3726 203 28 203H235C241.627 203 247 197.627 247 191V157C247 150.373 241.627 145 235 145Z" fill="white"/>
</mask>
<g mask="url(#mask7_120_2)">
<path d="M235 145H28C21.3726 145 16 150.373 16 157V191C16 197.627 21.3726 203 28 203H235C241.627 203 247 197.627 247 191V157C247 150.373 241.627 145 235 145Z" fill="#282828" fill-opacity="0.1"/>
<path d="M235 145H28C21.3726 145 16 150.373 16 157V191C16 197.627 21.3726 203 28 203H235C241.627 203 247 197.627 247 191V157C247 150.373 241.627 145 235 145Z" fill="#121212" fill-opacity="0.2"/>
<g filter="url(#filter3_di_120_2)">
<path d="M45 183C49.9706 183 54 178.971 54 174C54 169.029 49.9706 165 45 165C40.0294 165 36 169.029 36 174C36 178.971 40.0294 183 45 183Z" fill="#F8F8F8" fill-opacity="0.01"/>
<path d="M45 183C49.9706 183 54 178.971 54 174C54 169.029 49.9706 165 45 165C40.0294 165 36 169.029 36 174C36 178.971 40.0294 183 45 183Z" fill="#121212" fill-opacity="0.3"/>
<path d="M45 182.5C49.6944 182.5 53.5 178.694 53.5 174C53.5 169.306 49.6944 165.5 45 165.5C40.3056 165.5 36.5 169.306 36.5 174C36.5 178.694 40.3056 182.5 45 182.5Z" stroke="url(#paint4_linear_120_2)" stroke-opacity="0.25"/>
</g>
<path d="M45 178.5C47.4853 178.5 49.5 176.485 49.5 174C49.5 171.515 47.4853 169.5 45 169.5C42.5147 169.5 40.5 171.515 40.5 174C40.5 176.485 42.5147 178.5 45 178.5Z" fill="#F8F8F8"/>
<path d="M137 172H71C70.4477 172 70 172.448 70 173V175C70 175.552 70.4477 176 71 176H137C137.552 176 138 175.552 138 175V173C138 172.448 137.552 172 137 172Z" fill="#F8F8F8"/>
<path d="M194.982 179.2C194.894 179.2 194.822 179.172 194.766 179.116C194.71 179.06 194.682 178.988 194.682 178.9V178.072C194.074 178 193.566 177.852 193.158 177.628C192.75 177.396 192.442 177.116 192.234 176.788C192.026 176.46 191.914 176.116 191.898 175.756C191.898 175.692 191.922 175.636 191.97 175.588C192.026 175.532 192.09 175.504 192.162 175.504H193.446C193.55 175.504 193.63 175.528 193.686 175.576C193.742 175.616 193.794 175.668 193.842 175.732C193.898 175.868 193.986 176 194.106 176.128C194.234 176.256 194.406 176.364 194.622 176.452C194.838 176.532 195.106 176.572 195.426 176.572C195.946 176.572 196.334 176.488 196.59 176.32C196.854 176.152 196.986 175.924 196.986 175.636C196.986 175.428 196.914 175.26 196.77 175.132C196.634 175.004 196.414 174.888 196.11 174.784C195.814 174.68 195.414 174.568 194.91 174.448C194.31 174.32 193.802 174.156 193.386 173.956C192.97 173.748 192.654 173.484 192.438 173.164C192.23 172.836 192.126 172.432 192.126 171.952C192.126 171.32 192.35 170.784 192.798 170.344C193.254 169.904 193.882 169.632 194.682 169.528V168.7C194.682 168.612 194.71 168.54 194.766 168.484C194.822 168.428 194.894 168.4 194.982 168.4H195.834C195.914 168.4 195.982 168.428 196.038 168.484C196.094 168.54 196.122 168.612 196.122 168.7V169.552C196.674 169.64 197.134 169.808 197.502 170.056C197.878 170.296 198.162 170.572 198.354 170.884C198.554 171.188 198.658 171.484 198.666 171.772C198.666 171.836 198.642 171.896 198.594 171.952C198.546 172 198.486 172.024 198.414 172.024H197.058C196.986 172.024 196.918 172.008 196.854 171.976C196.79 171.944 196.734 171.888 196.686 171.808C196.646 171.6 196.506 171.42 196.266 171.268C196.026 171.108 195.722 171.028 195.354 171.028C194.962 171.028 194.65 171.1 194.418 171.244C194.186 171.388 194.07 171.608 194.07 171.904C194.07 172.096 194.13 172.26 194.25 172.396C194.37 172.524 194.566 172.64 194.838 172.744C195.11 172.84 195.478 172.948 195.942 173.068C196.646 173.212 197.218 173.384 197.658 173.584C198.098 173.784 198.418 174.044 198.618 174.364C198.826 174.676 198.93 175.072 198.93 175.552C198.93 176.016 198.814 176.428 198.582 176.788C198.35 177.14 198.022 177.424 197.598 177.64C197.182 177.856 196.69 178 196.122 178.072V178.9C196.122 178.988 196.094 179.06 196.038 179.116C195.982 179.172 195.914 179.2 195.834 179.2H194.982ZM203.35 178.12C202.79 178.12 202.294 178.056 201.862 177.928C201.438 177.792 201.082 177.608 200.794 177.376C200.506 177.136 200.29 176.86 200.146 176.548C200.002 176.228 199.93 175.88 199.93 175.504C199.93 175.048 200.042 174.652 200.266 174.316C200.49 173.98 200.774 173.72 201.118 173.536C200.838 173.352 200.618 173.12 200.458 172.84C200.306 172.552 200.23 172.22 200.23 171.844C200.23 171.388 200.346 170.984 200.578 170.632C200.81 170.28 201.154 170 201.61 169.792C202.074 169.584 202.654 169.48 203.35 169.48C204.038 169.48 204.61 169.584 205.066 169.792C205.522 169.992 205.866 170.268 206.098 170.62C206.33 170.972 206.446 171.376 206.446 171.832C206.446 172.208 206.37 172.54 206.218 172.828C206.066 173.116 205.85 173.352 205.57 173.536C205.938 173.712 206.23 173.972 206.446 174.316C206.662 174.66 206.77 175.06 206.77 175.516C206.77 176.012 206.642 176.456 206.386 176.848C206.13 177.24 205.746 177.552 205.234 177.784C204.722 178.008 204.094 178.12 203.35 178.12ZM203.35 176.74C203.63 176.74 203.886 176.692 204.118 176.596C204.35 176.492 204.53 176.348 204.658 176.164C204.794 175.98 204.862 175.764 204.862 175.516C204.862 175.26 204.794 175.044 204.658 174.868C204.53 174.684 204.35 174.544 204.118 174.448C203.886 174.344 203.63 174.292 203.35 174.292C203.062 174.292 202.802 174.344 202.57 174.448C202.346 174.544 202.166 174.684 202.03 174.868C201.894 175.044 201.826 175.26 201.826 175.516C201.826 175.764 201.894 175.98 202.03 176.164C202.166 176.348 202.346 176.492 202.57 176.596C202.802 176.692 203.062 176.74 203.35 176.74ZM203.35 172.984C203.598 172.976 203.822 172.928 204.022 172.84C204.222 172.752 204.382 172.632 204.502 172.48C204.622 172.32 204.682 172.136 204.682 171.928C204.682 171.712 204.622 171.528 204.502 171.376C204.39 171.216 204.234 171.092 204.034 171.004C203.834 170.916 203.606 170.872 203.35 170.872C203.094 170.872 202.862 170.916 202.654 171.004C202.454 171.092 202.298 171.216 202.186 171.376C202.074 171.528 202.018 171.712 202.018 171.928C202.018 172.144 202.074 172.332 202.186 172.492C202.298 172.644 202.454 172.764 202.654 172.852C202.862 172.94 203.094 172.984 203.35 172.984ZM211.342 178.12C210.782 178.12 210.286 178.056 209.854 177.928C209.43 177.792 209.074 177.608 208.786 177.376C208.498 177.136 208.282 176.86 208.138 176.548C207.994 176.228 207.922 175.88 207.922 175.504C207.922 175.048 208.034 174.652 208.258 174.316C208.482 173.98 208.766 173.72 209.11 173.536C208.83 173.352 208.61 173.12 208.45 172.84C208.298 172.552 208.222 172.22 208.222 171.844C208.222 171.388 208.338 170.984 208.57 170.632C208.802 170.28 209.146 170 209.602 169.792C210.066 169.584 210.646 169.48 211.342 169.48C212.03 169.48 212.602 169.584 213.058 169.792C213.514 169.992 213.858 170.268 214.09 170.62C214.322 170.972 214.438 171.376 214.438 171.832C214.438 172.208 214.362 172.54 214.21 172.828C214.058 173.116 213.842 173.352 213.562 173.536C213.93 173.712 214.222 173.972 214.438 174.316C214.654 174.66 214.762 175.06 214.762 175.516C214.762 176.012 214.634 176.456 214.378 176.848C214.122 177.24 213.738 177.552 213.226 177.784C212.714 178.008 212.086 178.12 211.342 178.12ZM211.342 176.74C211.622 176.74 211.878 176.692 212.11 176.596C212.342 176.492 212.522 176.348 212.65 176.164C212.786 175.98 212.854 175.764 212.854 175.516C212.854 175.26 212.786 175.044 212.65 174.868C212.522 174.684 212.342 174.544 212.11 174.448C211.878 174.344 211.622 174.292 211.342 174.292C211.054 174.292 210.794 174.344 210.562 174.448C210.338 174.544 210.158 174.684 210.022 174.868C209.886 175.044 209.818 175.26 209.818 175.516C209.818 175.764 209.886 175.98 210.022 176.164C210.158 176.348 210.338 176.492 210.562 176.596C210.794 176.692 211.054 176.74 211.342 176.74ZM211.342 172.984C211.59 172.976 211.814 172.928 212.014 172.84C212.214 172.752 212.374 172.632 212.494 172.48C212.614 172.32 212.674 172.136 212.674 171.928C212.674 171.712 212.614 171.528 212.494 171.376C212.382 171.216 212.226 171.092 212.026 171.004C211.826 170.916 211.598 170.872 211.342 170.872C211.086 170.872 210.854 170.916 210.646 171.004C210.446 171.092 210.29 171.216 210.178 171.376C210.066 171.528 210.01 171.712 210.01 171.928C210.01 172.144 210.066 172.332 210.178 172.492C210.29 172.644 210.446 172.764 210.646 172.852C210.854 172.94 211.086 172.984 211.342 172.984ZM216.252 178C216.164 178 216.092 177.972 216.036 177.916C215.98 177.86 215.952 177.788 215.952 177.7V176.356C215.952 176.268 215.98 176.196 216.036 176.14C216.092 176.084 216.164 176.056 216.252 176.056H217.596C217.684 176.056 217.756 176.084 217.812 176.14C217.868 176.196 217.896 176.268 217.896 176.356V177.7C217.896 177.788 217.868 177.86 217.812 177.916C217.756 177.972 217.684 178 217.596 178H216.252ZM222.487 178.12C221.911 178.12 221.415 178.04 220.999 177.88C220.591 177.712 220.251 177.484 219.979 177.196C219.715 176.9 219.515 176.56 219.379 176.176C219.251 175.784 219.175 175.368 219.151 174.928C219.143 174.712 219.135 174.472 219.127 174.208C219.127 173.936 219.127 173.664 219.127 173.392C219.135 173.12 219.143 172.872 219.151 172.648C219.167 172.208 219.243 171.796 219.379 171.412C219.523 171.028 219.731 170.692 220.003 170.404C220.275 170.116 220.615 169.892 221.023 169.732C221.439 169.564 221.927 169.48 222.487 169.48C223.047 169.48 223.531 169.564 223.939 169.732C224.347 169.892 224.687 170.116 224.959 170.404C225.231 170.692 225.435 171.028 225.571 171.412C225.715 171.796 225.799 172.208 225.823 172.648C225.831 172.872 225.835 173.12 225.835 173.392C225.843 173.664 225.843 173.936 225.835 174.208C225.835 174.472 225.831 174.712 225.823 174.928C225.799 175.368 225.719 175.784 225.583 176.176C225.447 176.56 225.243 176.9 224.971 177.196C224.707 177.484 224.367 177.712 223.951 177.88C223.543 178.04 223.055 178.12 222.487 178.12ZM222.487 176.56C222.951 176.56 223.291 176.408 223.507 176.104C223.723 175.8 223.839 175.388 223.855 174.868C223.863 174.636 223.867 174.396 223.867 174.148C223.875 173.9 223.875 173.652 223.867 173.404C223.867 173.156 223.863 172.924 223.855 172.708C223.839 172.212 223.723 171.808 223.507 171.496C223.291 171.184 222.951 171.024 222.487 171.016C222.015 171.024 221.671 171.184 221.455 171.496C221.247 171.808 221.135 172.212 221.119 172.708C221.111 172.924 221.103 173.156 221.095 173.404C221.095 173.652 221.095 173.9 221.095 174.148C221.103 174.396 221.111 174.636 221.119 174.868C221.135 175.388 221.251 175.8 221.467 176.104C221.683 176.408 222.023 176.56 222.487 176.56ZM230.502 178.12C229.926 178.12 229.43 178.04 229.014 177.88C228.606 177.712 228.266 177.484 227.994 177.196C227.73 176.9 227.53 176.56 227.394 176.176C227.266 175.784 227.19 175.368 227.166 174.928C227.158 174.712 227.15 174.472 227.142 174.208C227.142 173.936 227.142 173.664 227.142 173.392C227.15 173.12 227.158 172.872 227.166 172.648C227.182 172.208 227.258 171.796 227.394 171.412C227.538 171.028 227.746 170.692 228.018 170.404C228.29 170.116 228.63 169.892 229.038 169.732C229.454 169.564 229.942 169.48 230.502 169.48C231.062 169.48 231.546 169.564 231.954 169.732C232.362 169.892 232.702 170.116 232.974 170.404C233.246 170.692 233.45 171.028 233.586 171.412C233.73 171.796 233.814 172.208 233.838 172.648C233.846 172.872 233.85 173.12 233.85 173.392C233.858 173.664 233.858 173.936 233.85 174.208C233.85 174.472 233.846 174.712 233.838 174.928C233.814 175.368 233.734 175.784 233.598 176.176C233.462 176.56 233.258 176.9 232.986 177.196C232.722 177.484 232.382 177.712 231.966 177.88C231.558 178.04 231.07 178.12 230.502 178.12ZM230.502 176.56C230.966 176.56 231.306 176.408 231.522 176.104C231.738 175.8 231.854 175.388 231.87 174.868C231.878 174.636 231.882 174.396 231.882 174.148C231.89 173.9 231.89 173.652 231.882 173.404C231.882 173.156 231.878 172.924 231.87 172.708C231.854 172.212 231.738 171.808 231.522 171.496C231.306 171.184 230.966 171.024 230.502 171.016C230.03 171.024 229.686 171.184 229.47 171.496C229.262 171.808 229.15 172.212 229.134 172.708C229.126 172.924 229.118 173.156 229.11 173.404C229.11 173.652 229.11 173.9 229.11 174.148C229.118 174.396 229.126 174.636 229.134 174.868C229.15 175.388 229.266 175.8 229.482 176.104C229.698 176.408 230.038 176.56 230.502 176.56Z" fill="#F8F8F8" fill-opacity="0.7"/>
</g>
<path d="M235 145.75H28C21.7868 145.75 16.75 150.787 16.75 157V191C16.75 197.213 21.7868 202.25 28 202.25H235C241.213 202.25 246.25 197.213 246.25 191V157C246.25 150.787 241.213 145.75 235 145.75Z" stroke="#F8F8F8" stroke-opacity="0.4" stroke-width="1.5"/>
</g>
<g opacity="0.5">
<path d="M46.5 236.917L42.75 241.5L41.0833 239.833M51.5 239C51.5 243.142 48.1421 246.5 44 246.5C39.8579 246.5 36.5 243.142 36.5 239C36.5 234.858 39.8579 231.5 44 231.5C48.1421 231.5 51.5 234.858 51.5 239Z" stroke="#F8F8F8" stroke-width="2" stroke-linecap="round" stroke-linejoin="round"/>
</g>
<path opacity="0.5" d="M111 232H69C68.4477 232 68 232.448 68 233V235C68 235.552 68.4477 236 69 236H111C111.552 236 112 235.552 112 235V233C112 232.448 111.552 232 111 232Z" fill="#F8F8F8"/>
<path opacity="0.1" d="M118.5 242H69C68.4477 242 68 242.448 68 243V245C68 245.552 68.4477 246 69 246H118.5C119.052 246 119.5 245.552 119.5 245V243C119.5 242.448 119.052 242 118.5 242Z" fill="#F8F8F8"/>
<g opacity="0.5">
<path d="M158 236.917L154.25 241.5L152.583 239.833M163 239C163 243.142 159.642 246.5 155.5 246.5C151.358 246.5 148 243.142 148 239C148 234.858 151.358 231.5 155.5 231.5C159.642 231.5 163 234.858 163 239Z" stroke="#F8F8F8" stroke-width="2" stroke-linecap="round" stroke-linejoin="round"/>
</g>
<path opacity="0.5" d="M222.5 232H180.5C179.948 232 179.5 232.448 179.5 233V235C179.5 235.552 179.948 236 180.5 236H222.5C223.052 236 223.5 235.552 223.5 235V233C223.5 232.448 223.052 232 222.5 232Z" fill="#F8F8F8"/>
<path opacity="0.1" d="M230 242H180.5C179.948 242 179.5 242.448 179.5 243V245C179.5 245.552 179.948 246 180.5 246H230C230.552 246 231 245.552 231 245V243C231 242.448 230.552 242 230 242Z" fill="#F8F8F8"/>
<g opacity="0.5">
<path d="M46.5 276.917L42.75 281.5L41.0833 279.833M51.5 279C51.5 283.142 48.1421 286.5 44 286.5C39.8579 286.5 36.5 283.142 36.5 279C36.5 274.858 39.8579 271.5 44 271.5C48.1421 271.5 51.5 274.858 51.5 279Z" stroke="#F8F8F8" stroke-width="2" stroke-linecap="round" stroke-linejoin="round"/>
</g>
<path opacity="0.5" d="M111 272H69C68.4477 272 68 272.448 68 273V275C68 275.552 68.4477 276 69 276H111C111.552 276 112 275.552 112 275V273C112 272.448 111.552 272 111 272Z" fill="#F8F8F8"/>
<path opacity="0.1" d="M118.5 282H69C68.4477 282 68 282.448 68 283V285C68 285.552 68.4477 286 69 286H118.5C119.052 286 119.5 285.552 119.5 285V283C119.5 282.448 119.052 282 118.5 282Z" fill="#F8F8F8"/>
<g opacity="0.5">
<path d="M158 276.917L154.25 281.5L152.583 279.833M163 279C163 283.142 159.642 286.5 155.5 286.5C151.358 286.5 148 283.142 148 279C148 274.858 151.358 271.5 155.5 271.5C159.642 271.5 163 274.858 163 279Z" stroke="#F8F8F8" stroke-width="2" stroke-linecap="round" stroke-linejoin="round"/>
</g>
<path opacity="0.5" d="M222.5 272H180.5C179.948 272 179.5 272.448 179.5 273V275C179.5 275.552 179.948 276 180.5 276H222.5C223.052 276 223.5 275.552 223.5 275V273C223.5 272.448 223.052 272 222.5 272Z" fill="#F8F8F8"/>
<path opacity="0.1" d="M230 282H180.5C179.948 282 179.5 282.448 179.5 283V285C179.5 285.552 179.948 286 180.5 286H230C230.552 286 231 285.552 231 285V283C231 282.448 230.552 282 230 282Z" fill="#F8F8F8"/>
<g filter="url(#filter4_d_120_2)">
<g style="mix-blend-mode:luminosity">
<path d="M207.5 299H55.5C51.0817 299 47.5 302.582 47.5 307V339C47.5 343.418 51.0817 347 55.5 347H207.5C211.918 347 215.5 343.418 215.5 339V307C215.5 302.582 211.918 299 207.5 299Z" fill="#F8F8F8" fill-opacity="0.05"/>
</g>
<path d="M207.5 299.5H55.5C51.3579 299.5 48 302.858 48 307V339C48 343.142 51.3579 346.5 55.5 346.5H207.5C211.642 346.5 215 343.142 215 339V307C215 302.858 211.642 299.5 207.5 299.5Z" stroke="url(#paint5_linear_120_2)" stroke-opacity="0.25"/>
</g>
</g>
<path d="M247 43.75H16C7.57766 43.75 0.75 50.5777 0.75 59V363C0.75 371.422 7.57766 378.25 16 378.25H247C255.422 378.25 262.25 371.422 262.25 363V59C262.25 50.5777 255.422 43.75 247 43.75Z" stroke="#F8F8F8" stroke-opacity="0.1" stroke-width="1.5"/>
</g>
</g>
</g>
<defs>
<filter id="filter0_di_120_2" x="523" y="26" width="84" height="92" filterUnits="userSpaceOnUse" color-interpolation-filters="sRGB">
<feFlood flood-opacity="0" result="BackgroundImageFix"/>
<feColorMatrix in="SourceAlpha" type="matrix" values="0 0 0 0 0 0 0 0 0 0 0 0 0 0 0 0 0 0 127 0" result="hardAlpha"/>
<feOffset dy="32"/>
<feGaussianBlur stdDeviation="12"/>
<feComposite in2="hardAlpha" operator="out"/>
<feColorMatrix type="matrix" values="0 0 0 0 0 0 0 0 0 0 0 0 0 0 0 0 0 0 0.4 0"/>
<feBlend mode="normal" in2="BackgroundImageFix" result="effect1_dropShadow_120_2"/>
<feBlend mode="normal" in="SourceGraphic" in2="effect1_dropShadow_120_2" result="shape"/>
<feColorMatrix in="SourceAlpha" type="matrix" values="0 0 0 0 0 0 0 0 0 0 0 0 0 0 0 0 0 0 127 0" result="hardAlpha"/>
<feOffset/>
<feGaussianBlur stdDeviation="4"/>
<feComposite in2="hardAlpha" operator="arithmetic" k2="-1" k3="1"/>
<feColorMatrix type="matrix" values="0 0 0 0 0.972549 0 0 0 0 0.972549 0 0 0 0 0.972549 0 0 0 0.25 0"/>
<feBlend mode="normal" in2="shape" result="effect2_innerShadow_120_2"/>
</filter>
<filter id="filter1_d_120_2" x="527" y="30" width="76" height="76" filterUnits="userSpaceOnUse" color-interpolation-filters="sRGB">
<feFlood flood-opacity="0" result="BackgroundImageFix"/>
<feColorMatrix in="SourceAlpha" type="matrix" values="0 0 0 0 0 0 0 0 0 0 0 0 0 0 0 0 0 0 127 0" result="hardAlpha"/>
<feOffset dy="24"/>
<feGaussianBlur stdDeviation="12"/>
<feComposite in2="hardAlpha" operator="out"/>
<feColorMatrix type="matrix" values="0 0 0 0 0 0 0 0 0 0 0 0 0 0 0 0 0 0 0.3 0"/>
<feBlend mode="normal" in2="BackgroundImageFix" result="effect1_dropShadow_120_2"/>
<feBlend mode="normal" in="SourceGraphic" in2="effect1_dropShadow_120_2" result="shape"/>
</filter>
<filter id="filter2_i_120_2" x="16" y="145" width="233" height="62" filterUnits="userSpaceOnUse" color-interpolation-filters="sRGB">
<feFlood flood-opacity="0" result="BackgroundImageFix"/>
<feBlend mode="normal" in="SourceGraphic" in2="BackgroundImageFix" result="shape"/>
<feColorMatrix in="SourceAlpha" type="matrix" values="0 0 0 0 0 0 0 0 0 0 0 0 0 0 0 0 0 0 127 0" result="hardAlpha"/>
<feOffset dx="2" dy="4"/>
<feGaussianBlur stdDeviation="8"/>
<feComposite in2="hardAlpha" operator="arithmetic" k2="-1" k3="1"/>
<feColorMatrix type="matrix" values="0 0 0 0 0.972549 0 0 0 0 0.972549 0 0 0 0 0.972549 0 0 0 0.06 0"/>
<feBlend mode="normal" in2="shape" result="effect1_innerShadow_120_2"/>
</filter>
<filter id="filter3_di_120_2" x="12" y="165" width="66" height="74" filterUnits="userSpaceOnUse" color-interpolation-filters="sRGB">
<feFlood flood-opacity="0" result="BackgroundImageFix"/>
<feColorMatrix in="SourceAlpha" type="matrix" values="0 0 0 0 0 0 0 0 0 0 0 0 0 0 0 0 0 0 127 0" result="hardAlpha"/>
<feOffset dy="32"/>
<feGaussianBlur stdDeviation="12"/>
<feComposite in2="hardAlpha" operator="out"/>
<feColorMatrix type="matrix" values="0 0 0 0 0 0 0 0 0 0 0 0 0 0 0 0 0 0 0.4 0"/>
<feBlend mode="normal" in2="BackgroundImageFix" result="effect1_dropShadow_120_2"/>
<feBlend mode="normal" in="SourceGraphic" in2="effect1_dropShadow_120_2" result="shape"/>
<feColorMatrix in="SourceAlpha" type="matrix" values="0 0 0 0 0 0 0 0 0 0 0 0 0 0 0 0 0 0 127 0" result="hardAlpha"/>
<feOffset/>
<feGaussianBlur stdDeviation="4"/>
<feComposite in2="hardAlpha" operator="arithmetic" k2="-1" k3="1"/>
<feColorMatrix type="matrix" values="0 0 0 0 0.972549 0 0 0 0 0.972549 0 0 0 0 0.972549 0 0 0 0.25 0"/>
<feBlend mode="normal" in2="shape" result="effect2_innerShadow_120_2"/>
</filter>
<filter id="filter4_d_120_2" x="23.5" y="299" width="216" height="96" filterUnits="userSpaceOnUse" color-interpolation-filters="sRGB">
<feFlood flood-opacity="0" result="BackgroundImageFix"/>
<feColorMatrix in="SourceAlpha" type="matrix" values="0 0 0 0 0 0 0 0 0 0 0 0 0 0 0 0 0 0 127 0" result="hardAlpha"/>
<feOffset dy="24"/>
<feGaussianBlur stdDeviation="12"/>
<feComposite in2="hardAlpha" operator="out"/>
<feColorMatrix type="matrix" values="0 0 0 0 0 0 0 0 0 0 0 0 0 0 0 0 0 0 0.3 0"/>
<feBlend mode="normal" in2="BackgroundImageFix" result="effect1_dropShadow_120_2"/>
<feBlend mode="normal" in="SourceGraphic" in2="effect1_dropShadow_120_2" result="shape"/>
</filter>
<linearGradient id="paint0_linear_120_2" x1="468" y1="92.5" x2="468" y2="354" gradientUnits="userSpaceOnUse">
<stop offset="0.704257" stop-color="#D9D9D9"/>
<stop offset="1" stop-color="#737373" stop-opacity="0"/>
</linearGradient>
<linearGradient id="paint1_linear_120_2" x1="565" y1="30" x2="577.181" y2="60.7474" gradientUnits="userSpaceOnUse">
<stop stop-color="white" stop-opacity="0.4"/>
<stop offset="0.4" stop-color="white" stop-opacity="0.01"/>
<stop offset="0.6" stop-color="white" stop-opacity="0.01"/>
<stop offset="1" stop-color="white" stop-opacity="0.1"/>
</linearGradient>
<linearGradient id="paint2_linear_120_2" x1="411" y1="135" x2="411" y2="233" gradientUnits="userSpaceOnUse">
<stop stop-color="white" stop-opacity="0.4"/>
<stop offset="1" stop-color="white" stop-opacity="0"/>
</linearGradient>
<linearGradient id="paint3_linear_120_2" x1="131.5" y1="101.536" x2="131.5" y2="307" gradientUnits="userSpaceOnUse">
<stop stop-color="#D9D9D9"/>
<stop offset="1" stop-color="#737373" stop-opacity="0"/>
</linearGradient>
<linearGradient id="paint4_linear_120_2" x1="45" y1="165" x2="52.8304" y2="184.766" gradientUnits="userSpaceOnUse">
<stop stop-color="white" stop-opacity="0.4"/>
<stop offset="0.4" stop-color="white" stop-opacity="0.01"/>
<stop offset="0.6" stop-color="white" stop-opacity="0.01"/>
<stop offset="1" stop-color="white" stop-opacity="0.1"/>
</linearGradient>
<linearGradient id="paint5_linear_120_2" x1="131.5" y1="299" x2="138.315" y2="359.21" gradientUnits="userSpaceOnUse">
<stop stop-color="white" stop-opacity="0.4"/>
<stop offset="0.4" stop-color="white" stop-opacity="0.01"/>
<stop offset="0.6" stop-color="white" stop-opacity="0.01"/>
<stop offset="1" stop-color="white" stop-opacity="0.1"/>
</linearGradient>
<clipPath id="clip0_120_2">
<rect width="599" height="307" fill="white"/>
</clipPath>
</defs>
</svg>
